<?xml version="1.0" standalone="no"?>
<!DOCTYPE svg PUBLIC "-//W3C//DTD SVG 1.1//EN" "http://www.w3.org/Graphics/SVG/1.1/DTD/svg11.dtd" >
<svg xmlns="http://www.w3.org/2000/svg" xmlns:xlink="http://www.w3.org/1999/xlink" version="1.1">
<metadata></metadata>
<defs>
<font id="dsn_panutatregular" horiz-adv-x="0" >
<font-face units-per-em="2048" ascent="1638" descent="-410" />
<missing-glyph horiz-adv-x="455" />
<glyph unicode="&#xd;" horiz-adv-x="455" />
<glyph unicode=" "  horiz-adv-x="455" />
<glyph unicode="&#x09;" horiz-adv-x="455" />
<glyph unicode="&#xa0;" horiz-adv-x="455" />
<glyph unicode="!" horiz-adv-x="320" d="M6 992h194q33 0 33 -19v-28l-33 -690h-115l-22 623q-3 81 -57 114zM51 72q0 102 104 102q38 0 64.5 -31.5t26.5 -70.5t-29 -62.5t-69 -23.5t-67 23q-30 24 -30 63z" />
<glyph unicode="&#x22;" horiz-adv-x="320" d="M12 670v301h79v-301h-79zM172 670v301h81v-301h-81z" />
<glyph unicode="#" horiz-adv-x="793" d="M12 346v95h194l12 125h-173v91h184l46 322h105l-45 -322h125l46 322h105l-47 -322h150v-91h-174l-12 -125h148v-95h-158l-47 -344h-102l44 344h-127l-47 -344h-103l46 344h-170zM297 441h140l12 125h-139z" />
<glyph unicode="$" horiz-adv-x="714" d="M6 727q0 123 97 181q57 34 168 51v125h91v-125q100 0 172 -35v-161q-82 87 -172 104v-288q129 -72 157 -91q132 -88 132 -233q0 -104 -94 -181q-89 -72 -195 -72v-125h-91v125l-254 24v171q28 -21 87 -59q73 -43 167 -43v356q-80 42 -159 85q-106 74 -106 191zM136 740 q0 -71 135 -117v244q-42 -18 -83 -36q-46 -40 -46 -57q-6 -30 -6 -34zM362 95q53 7 94 44q44 41 44 92q0 143 -138 186v-322z" />
<glyph unicode="%" horiz-adv-x="1198" d="M12 670q0 169 84 256q64 66 143 66q117 0 185 -96q59 -85 59 -207q0 -117 -55 -204q-64 -101 -175 -101q-89 0 -155 60q-86 78 -86 226zM115 680q0 -84 27 -146q37 -83 111 -83q68 0 102 86q25 63 25 143q0 87 -28 154q-38 90 -113 90q-67 0 -100 -95q-24 -68 -24 -149z M286 2l475 969h91l-472 -969h-94zM645 265q0 164 86 253q69 71 155 71h6q111 0 175 -105q54 -89 54 -207q0 -115 -52 -198q-61 -98 -170 -98h-21q-109 0 -174 90q-59 81 -59 194zM748 289q0 -76 32 -150q40 -94 106 -94q6 4 13 4q63 7 97 82q26 59 26 132q0 81 -29 152 q-38 94 -107 94q-138 0 -138 -220z" />
<glyph unicode="&#x26;" horiz-adv-x="1198" d="M8 255q0 163 196 324q-115 77 -115 199q0 92 69 148q64 53 158 53h17q88 0 144.5 -57t56.5 -144q0 -135 -123 -212l211 -198q132 -122 239 -203q139 -105 264 -163h-207q-53 0 -111 28q-23 11 -167 110q-31 -60 -105 -108q-90 -58 -191 -58q-119 0 -234 75 q-102 84 -102 206zM168 253q0 -56 36 -101q73 -75 156 -75q122 0 223 120l-288 289q-127 -127 -127 -233zM220 797q0 -62 100 -150q91 60 91 150q-18 81 -101 81q-90 -11 -90 -81z" />
<glyph unicode="'" horiz-adv-x="261" d="M8 920q0 36 27.5 60.5t63.5 24.5h11q85 -9 85 -106q0 -46 -27 -89q-17 -36 -45 -72q-33 -42 -60 -42q-22 0 -44 31q38 30 52 46q28 33 28 71q-91 0 -91 76z" />
<glyph unicode="(" horiz-adv-x="366" d="M6 399q0 273 206 572h93q-118 -202 -159 -365q-25 -100 -25 -205q0 -275 184 -594h-105q-194 330 -194 592z" />
<glyph unicode=")" horiz-adv-x="366" d="M2 -193q180 221 180 568q0 348 -180 596h104q197 -267 197 -591q0 -307 -197 -573h-104z" />
<glyph unicode="*" horiz-adv-x="502" d="M14 763l45 125q52 -62 138 -78q0 81 -33 149h125q-34 -64 -34 -149q51 9 75 20q31 14 64 48l47 -104q-106 0 -164 -34l56 -51q32 -28 61 -42l-91 -68q-14 31 -28 56q-17 30 -44 79q-26 -38 -34 -54q-17 -32 -33 -81l-105 68q52 15 79 47q7 9 36 59q-45 12 -109 12h-26 q-13 0 -25 -2z" />
<glyph unicode="+" horiz-adv-x="973" d="M85 426v94h326v347h102v-347h329v-94h-329v-337h-102v337h-326z" />
<glyph unicode="," horiz-adv-x="244" d="M-19 -157l74 86q31 37 40 63q-51 14 -60 20q-33 23 -33 83q7 73 87 73q89 0 97 -85v-18q0 -63 -51 -139q-41 -60 -76 -83h-78z" />
<glyph unicode="-" horiz-adv-x="973" d="M85 426v94h757v-94h-757z" />
<glyph unicode="." horiz-adv-x="261" d="M0 91q0 83 95 83q39 0 70.5 -26t31.5 -65q0 -42 -28 -68.5t-70 -26.5q-40 0 -67 22q-30 23 -30 62z" />
<glyph unicode="/" horiz-adv-x="579" d="M-53 -204l458 1175h117l-463 -1175h-112z" />
<glyph unicode="0" horiz-adv-x="867" d="M6 441q0 225 76 368q98 183 304 183q197 0 308 -160q97 -141 97 -346q0 -196 -90 -344q-106 -174 -290 -174h-12q-181 0 -293 153q-100 137 -100 320zM166 486q0 -139 52 -254q68 -149 191 -149l2 -2q104 0 159 158q41 117 41 244q0 136 -44 242q-58 142 -175 142h-6 q-111 0 -173 -143q-47 -110 -47 -238z" />
<glyph unicode="1" horiz-adv-x="458" d="M14 787q128 52 211 127q22 20 123 136v-898q0 -77 69 -150h-311q80 65 80 162v623h-172z" />
<glyph unicode="2" horiz-adv-x="821" d="M12 14l393 565q62 89 62 161q0 127 -157 127q-118 0 -265 -93l91 185q109 38 180 38q119 0 215 -54q116 -64 116 -174q0 -74 -49 -146l-335 -494q96 -23 182 -23q204 0 316 68l-85 -172h-652z" />
<glyph unicode="3" horiz-adv-x="793" d="M12 174q133 -79 274 -79q102 0 167 45q75 51 75 149q0 192 -242 192q-17 0 -52 -3t-52 -3v114q51 -8 73 -8q75 0 140 32q80 40 80 107q0 93 -78 131q-45 21 -100 21q-121 0 -240 -75l68 162q42 31 191 31q131 0 213 -47q102 -58 102 -180q0 -146 -160 -207 q108 -31 158 -74q75 -64 75 -181v-24q0 -147 -143 -228q-120 -68 -286 -68h-36l-158 11z" />
<glyph unicode="4" horiz-adv-x="926" d="M2 208l449 763h206v-659q125 0 199 61l-82 -176h-117v-80q0 -61 70 -115h-286q68 36 68 104v91h-495zM208 322l301 -10v544z" />
<glyph unicode="5" horiz-adv-x="774" d="M2 152q105 -55 237 -55q108 0 184 38q99 48 99 145v32q-31 184 -265 184q-112 0 -219 -45l34 520h528v-184q-43 63 -263 63q-23 0 -70 -3t-70 -3l-11 -244q62 17 136 17q147 0 248 -75q112 -84 112 -226v-27q0 -165 -146 -245q-115 -63 -285 -63q-102 0 -192 21z" />
<glyph unicode="6" horiz-adv-x="852" d="M2 384q0 359 388 532q144 64 280 76l-81 -104q-138 -16 -285 -165t-147 -331q0 -118 58 -212q67 -108 179 -108q105 0 156 51q46 46 63 154v35q0 93 -60.5 156.5t-153.5 63.5q-80 0 -179 -46l102 127q59 25 123 25q139 0 228.5 -93t89.5 -233q0 -136 -84 -232 q-98 -112 -274 -112q-277 0 -372 255q-31 84 -31 161z" />
<glyph unicode="7" horiz-adv-x="791" d="M14 787l69 184h635l-345 -807l-16 -48q-11 -33 -11 -51q0 -39 38 -63h-255l367 842q-120 23 -191 23q-158 0 -291 -80z" />
<glyph unicode="8" horiz-adv-x="882" d="M6 253q0 91 66 158q60 62 153 85q-191 93 -191 238q0 113 121 184q102 61 223 61h21q126 0 225 -57q120 -69 120 -186q0 -148 -186 -214q98 -27 165 -98q74 -77 74 -173q0 -113 -95 -192q-110 -91 -303 -91h-19q-143 0 -250 69q-124 80 -124 216zM161 261q0 -76 69 -132 q59 -49 169 -57l27 -2q93 -7 157 50q55 49 55 124q0 124 -322 221q-155 -84 -155 -204zM200 740q0 -70 152 -136q19 -8 115 -48q116 55 116 174q0 74 -64 114q-54 34 -133 34q-186 0 -186 -138z" />
<glyph unicode="9" horiz-adv-x="867" d="M2 636q0 158 114 253q108 90 268 90q167 0 278.5 -107.5t111.5 -273.5v-19q0 -260 -213 -440q-202 -171 -466 -171l79 91q88 25 170 72q269 155 269 425q0 125 -62 217q-72 105 -191 105q-86 0 -147 -67.5t-61 -153.5q0 -83 56 -153q64 -80 161 -80q87 0 173 62l-91 -128 q-65 -38 -135 -38q-131 0 -222.5 92.5t-91.5 223.5z" />
<glyph unicode=":" horiz-adv-x="277" d="M6 72l2 11q0 39 26 65t65 26q40 0 67 -25.5t27 -65.5v-11q0 -84 -89 -84q-98 0 -98 84zM8 475q0 81 91 81h18q34 0 60.5 -23.5t26.5 -57.5q0 -43 -26.5 -72.5t-69.5 -29.5t-71.5 29.5t-28.5 72.5z" />
<glyph unicode=";" horiz-adv-x="277" d="M8 -136q80 55 102 128q-44 13 -58 23q-33 23 -33 68q4 38 32 63.5t66 25.5q35 0 62 -27q30 -30 27 -73l-2 -34q-66 -195 -151 -195l-34 11zM8 475q0 39 26 65t65 26q105 0 105 -101q0 -92 -94 -92q-43 0 -72.5 29.5t-29.5 72.5z" />
<glyph unicode="&#x3c;" horiz-adv-x="821" d="M28 301v93l727 320v-91l-624 -277l624 -297v-94z" />
<glyph unicode="=" horiz-adv-x="945" d="M59 225v91h757v-91h-757zM59 522v93h757v-93h-757z" />
<glyph unicode="&#x3e;" horiz-adv-x="835" d="M2 -32v91l634 287l-634 277v104l751 -343v-83z" />
<glyph unicode="?" horiz-adv-x="640" d="M2 797l104 148q65 26 140 26q129 0 222 -63q107 -73 107 -196q0 -54 -19 -112q-14 -41 -87 -107q-107 -96 -119 -109q-61 -65 -61 -119q0 -21 12 -45l-115 -12q-14 47 -14 72q0 82 72 154l140 132q40 51 40 106q0 79 -62.5 137t-141.5 58q-62 0 -139 -33q-10 -4 -79 -37z M152 72q0 80 73 80h19q104 0 104 -80q0 -98 -95 -98q-42 0 -71.5 28t-29.5 70z" />
<glyph unicode="@" horiz-adv-x="1077" d="M8 451q0 210 138 363q148 165 380 165q185 0 312 -99q147 -115 147 -324q0 -151 -96 -264q-101 -118 -249 -118q-86 0 -114 81q-52 -77 -148 -77q-76 0 -127 50t-51 126l4 40q15 145 103 259q94 121 219 121q98 0 125 -60l25 39h127l-163 -452l-4 -30q0 -34 36 -34 q62 0 137 81q99 107 99 224v16q0 137 -124 242q-119 101 -258 101q-232 0 -354 -179q-73 -107 -73 -257q0 -167 131 -288q128 -118 296 -118q112 0 210 50q104 53 158 146h91q-109 -179 -246 -236q-92 -38 -213 -38h-20q-195 0 -344 136q-154 141 -154 334zM328 316 q0 -61 60 -61l6 -2q67 0 146 161q73 147 73 226q0 52 -30 52h-15q-94 0 -180 -183q-60 -128 -60 -193z" />
<glyph unicode="A" horiz-adv-x="1141" d="M2 2q104 74 127 162l276 703q8 20 8 41q0 31 -40 63h227l345 -831q20 -49 117 -138h-309q52 28 52 70q0 24 -18 68l-95 233h-357l-91 -256q0 -1 -6 -21q-5 -14 -5 -19q0 -26 56 -75h-287zM373 475h274l-138 356z" />
<glyph unicode="B" horiz-adv-x="835" d="M2 2q57 44 57 127v715q0 96 -57 127h346q123 0 208 -53q101 -62 101 -178q0 -62 -38 -114.5t-97 -69.5q102 -34 153 -80q78 -70 78 -187q0 -208 -231 -268q-73 -19 -149 -19h-371zM220 117q24 0 70.5 -5.5t69.5 -5.5q219 0 219 163v20q0 86 -59 133q-69 55 -201 55h-18 l-81 -2v-358zM220 579q8 0 25 -2t26 -2q215 0 215 127v25q-14 96 -79 122q-45 18 -187 18v-288z" />
<glyph unicode="C" horiz-adv-x="943" d="M14 451q0 321 196 457q121 84 312 84q126 0 275 -33v-172q-134 80 -288 80q-148 0 -237 -99q-86 -95 -86 -244q0 -160 95 -278q106 -132 254 -132q11 0 23 1l31 2q97 6 147 23q39 13 131 57l-57 -171q-112 -40 -242 -40q-221 0 -377 114q-177 129 -177 351z" />
<glyph unicode="D" horiz-adv-x="1016" d="M8 2q69 44 69 150v679q0 61 -20 91q-2 3 -49 49h358q253 0 410 -150q142 -135 142 -319v-16q0 -189 -122 -326q-143 -161 -368 -161q-13 0 -27 1l-47 2h-346zM225 117q54 -18 103 -18q151 0 269 75q149 95 149 267v34q0 266 -213 337q-75 25 -173 25q-23 0 -68 -3t-67 -3 v-714z" />
<glyph unicode="E" horiz-adv-x="774" d="M12 2q58 62 58 127v668q0 59 -7 86q-12 46 -51 76h471q46 0 71 12v-184q-50 59 -212 59q-21 0 -62 -1t-62 -1v-265h157q63 0 85 10v-158q-29 44 -138 44h-104v-346q49 -7 101 -14q70 -9 105 -9q160 0 268 91l-81 -195h-599z" />
<glyph unicode="F" horiz-adv-x="655" d="M12 2q45 23 60 71q9 29 9 79v683q0 85 -57 124h436q94 0 104 12v-184q-44 63 -191 63q-77 0 -144 -19v-252h163q80 0 91 10v-158q-26 38 -157 38q-16 0 -48.5 -2t-48.5 -2v-313q0 -122 81 -150h-298z" />
<glyph unicode="G" horiz-adv-x="1064" d="M2 475q24 249 192 378q156 120 411 120q101 0 239 -28v-171q-107 89 -259 89q-164 0 -281 -103q-122 -108 -122 -270q0 -4 2 -12.5t2 -12.5q0 -205 151 -309q118 -81 286 -81q96 0 174 31v216q0 123 -67 164h229q-14 -21 -14 -79v-324q0 -44 14 -69q-169 -46 -323 -46 q-268 0 -437 115q-197 134 -197 392z" />
<glyph unicode="H" horiz-adv-x="1050" d="M2 2q70 36 70 138v647q0 60 -7 90q-12 52 -51 82h275q-69 -37 -69 -162v-218h533v231q0 115 -83 149h301l-44 -48q-26 -36 -26 -101v-670q0 -94 70 -138h-291q73 28 73 127v336h-533v-325q0 -83 69 -138h-287z" />
<glyph unicode="I" horiz-adv-x="380" d="M2 2q81 28 81 127v702q0 97 -69 140h287q-70 -55 -70 -150v-692q0 -37 30 -77.5t65 -49.5h-324z" />
<glyph unicode="J" horiz-adv-x="399" d="M-99 -328q182 83 182 304v880q0 52 -81 115h310q-31 -23 -43 -41q-17 -26 -25 -74v-933q0 -122 -129 -194q-103 -57 -214 -57z" />
<glyph unicode="K" horiz-adv-x="954" d="M6 2q41 22 51 36q18 24 18 79v693q0 104 -8 119q-27 19 -61 42h285q-44 -46 -46 -50q-20 -32 -20 -100v-657q0 -112 78 -162h-297zM246 509l267 358q9 16 9 27q0 44 -55 77h288l-346 -439l299 -392q60 -79 174 -138h-148q-58 0 -116 31q-50 27 -60 50z" />
<glyph unicode="L" horiz-adv-x="761" d="M2 2q70 50 70 127v715q0 64 -24 90q-16 17 -34 37h287l-44 -40q-26 -33 -26 -100v-702q37 0 83 -6q101 -13 119 -13q142 0 263 87l-83 -195h-611z" />
<glyph unicode="M" horiz-adv-x="1473" d="M17 2q80 49 80 150l91 669q0 17 2 30l3 31q0 33 -14 52l-37 37h257l307 -716l267 716h265q-61 -28 -61 -89q0 -5 2 -13.5t2 -12.5l93 -704q6 -46 27 -87q24 -47 64 -63h-313q71 19 71 123v27l-82 658l-323 -818q-32 7 -69 53.5t-58 94.5l-288 670l-91 -658q0 -92 68 -150 h-263z" />
<glyph unicode="N" horiz-adv-x="1064" d="M6 2q54 43 58 48q25 30 33 90v657q0 89 -32 129l-59 45h219l587 -751v590q0 142 -92 161h287q-32 -21 -63 -42q-28 -29 -28 -108v-866q-35 0 -88 38q-46 32 -73 66l-555 704v-611q0 -97 80 -150h-274z" />
<glyph unicode="O" horiz-adv-x="1185" d="M8 465q-1 10 -1 20q0 95 51 204q135 290 491 290q232 0 384 -128q161 -137 161 -365q0 -126 -62 -244.5t-166 -188.5q-126 -85 -294 -85q-257 0 -407 144q-145 139 -157 353zM188 496q0 -3 2.5 -10.5t2.5 -10.5q0 -162 109 -277t270 -115q152 0 250 108q96 105 96 258v26 q0 163 -108 281q-110 122 -272 122q-136 0 -237 -97q-113 -108 -113 -285z" />
<glyph unicode="P" horiz-adv-x="805" d="M14 2q81 43 81 138v670q0 79 -17 113q-13 26 -52 48h322q195 0 293 -88q77 -69 77 -169v-16q0 -115 -111 -198q-93 -69 -176 -69q-118 0 -154 34q4 0 11 -2.5t9 -2.5q94 0 169.5 63.5t75.5 156.5q0 180 -216 180q-14 0 -41 -2t-41 -2v-716q0 -98 82 -138h-312z" />
<glyph unicode="Q" horiz-adv-x="1185" d="M8 500l4 22q0 109 68 218q64 103 160 166q131 86 300 86h24q232 0 379 -136q151 -140 151 -370q0 -67 -39 -163q-35 -85 -81 -147q-68 -91 -145 -117q112 -93 135 -111q185 -141 349 -141q-78 -72 -183 -72q-131 0 -312 133q-69 50 -152 124q-75 -16 -132 -16 q-209 0 -357 127q-169 145 -169 397zM180 496l2 -21q0 -183 130 -296q110 -96 242 -96l18 -2q156 0 255 121q93 114 93 273q0 181 -99 294q-103 119 -281 119q-130 0 -237 -99q-123 -114 -123 -293z" />
<glyph unicode="R" horiz-adv-x="985" d="M6 2q69 19 69 115v714q0 84 -21 114q-7 10 -48 34h322q344 0 344 -239q0 -98 -66 -171.5t-163 -93.5q71 -91 215 -271q115 -137 234 -202h-158q-52 0 -86 16q-50 23 -90 77l-301 401q147 54 193 88q63 46 63 120v23q0 149 -187 149q-37 0 -93 -9v-738q0 -90 70 -127h-297 z" />
<glyph unicode="S" horiz-adv-x="805" d="M12 197q132 -116 300 -116q72 0 130 25q73 31 86 91q4 18 4 40q0 46 -36 85q-43 46 -116 83l-162 81q-82 41 -124 84q-63 65 -70 144q0 138 106 212q93 66 236 66h39q141 0 214 -33v-162q-104 87 -250 87q-117 0 -163 -87q-13 -25 -13 -44q0 -46 50 -93q31 -29 115 -71 l160 -80q194 -97 194 -232q0 -151 -136 -235q-114 -70 -275 -70q-127 0 -256 42z" />
<glyph unicode="T" horiz-adv-x="867" d="M14 810l45 182q13 -13 81 -13h586q34 0 69 13l-57 -182q-18 57 -125 57h-138v-761q0 -37 27 -64q7 -7 54 -40h-301q67 35 67 104v761h-114q-119 0 -194 -57z" />
<glyph unicode="U" horiz-adv-x="1016" d="M8 979h263q-46 -46 -46 -123v-521q0 -109 55 -173q58 -67 165 -67q104 0 174 44q83 52 83 150v521q0 116 -73 169h279q-58 -53 -58 -169v-670q0 -110 68 -138h-216v93q-73 -69 -115 -86q-69 -28 -163 -28q-190 0 -284 110q-75 88 -75 221v544q0 72 -57 123z" />
<glyph unicode="V" horiz-adv-x="1018" d="M2 979h242q-11 -11 -11 -36q0 -14 10 -48l12 -39l241 -670l247 675q1 10 1 11q0 61 -64 107h244l-402 -1024l-91 71q-24 19 -48 54.5t-37 71.5l-251 692q-16 44 -38 77.5t-55 57.5z" />
<glyph unicode="W" horiz-adv-x="1501" d="M12 979h227q-6 -18 -6 -29q0 -15 7 -41q11 -41 13 -53l218 -670l184 635q9 31 9 51q0 70 -53 107h218l-4 -40q0 -26 17 -108l206 -634l184 600q10 50 10 73q0 78 -78 109h240l-310 -1024q-48 22 -100 64q-62 49 -74 87l-184 574l-230 -725q-80 51 -120 96q-48 54 -76 146 l-195 634q-34 80 -103 148z" />
<glyph unicode="X" horiz-adv-x="1107" d="M8 2l416 520l-244 356q-16 32 -44 55q-19 15 -71 46h149q57 0 82 -14q20 -12 46 -51l184 -278l172 231q20 35 20 49q0 51 -78 63h289l-336 -437l291 -436q27 -41 53 -65q33 -31 72 -39h-182q-33 0 -63 27q-21 20 -44 54l-228 348l-221 -302q-6 -11 -10 -22q-8 -20 -8 -32 q0 -37 52 -73h-297z" />
<glyph unicode="Y" horiz-adv-x="1016" d="M8 979h138q63 0 96 -24q23 -17 53 -67l197 -332l195 288q11 16 11 48q0 28 -15 54q-17 30 -43 33h289l-380 -548v-302q0 -47 26 -81q16 -21 54 -46h-301q71 36 71 115v314l-263 436q-34 57 -128 112z" />
<glyph unicode="Z" horiz-adv-x="926" d="M2 2l530 865q-114 15 -166 15q-209 0 -307 -85l70 182h668l-542 -862q9 0 27.5 2t27.5 2q24 0 146 -10q61 -5 100 -5q175 0 300 80l-82 -184h-772z" />
<glyph unicode="[" horiz-adv-x="431" d="M12 971h334v-83h-151v-1011h151v-81h-322q26 30 31 39q15 26 15 66v966q0 39 -16 63q-11 16 -42 41z" />
<glyph unicode="\" horiz-adv-x="591" d="M6 971h102l405 -969h-104z" />
<glyph unicode="]" horiz-adv-x="399" d="M2 -110h150v988h-150v81h335q-60 -44 -60 -115v-863q0 -143 60 -174h-335v83z" />
<glyph unicode="^" horiz-adv-x="793" d="M38 373l299 586h94l299 -586h-94l-252 494l-255 -494h-91z" />
<glyph unicode="_" horiz-adv-x="676" d="M2 -99h668v-81h-668v81z" />
<glyph unicode="`" horiz-adv-x="289" d="M12 787l2 34q13 72 81 150q29 26 45 26q22 0 34 -18l-47 -61q-28 -37 -28 -51q0 -11 18 -11q33 0 54.5 -25.5t21.5 -59.5q0 -79 -87 -79q-48 0 -72 27.5t-22 67.5z" />
<glyph unicode="a" horiz-adv-x="761" d="M2 186q0 151 160 194q27 7 139 25q142 23 142 91q0 41 -59 70q-35 17 -83 17q-52 0 -114 -20q-38 -13 -92 -31l113 148q15 0 46 3.5t47 3.5q278 0 278 -229v-238q0 -75 24 -104q28 -33 101 -33l-68 -102q-195 16 -195 159v218q-14 -11 -165 -50q-120 -31 -124 -111v-6 q0 -47 43 -78q43 -32 106 -32q50 0 116 25l-82 -114q-35 -6 -74 -6q-100 0 -174 49q-85 56 -85 151z" />
<glyph unicode="b" horiz-adv-x="837" d="M12 958q14 0 41.5 -2t41.5 -2q106 0 123 25v-873q71 -23 115 -23q111 0 181.5 64.5t70.5 174.5v36q-24 214 -207 214q-75 0 -139 -30l81 128q58 17 106 17q132 0 227 -103t95 -236v-13q0 -174 -131 -270q-116 -84 -297 -84q-103 0 -170 6q-10 1 -126 15q57 15 57 104v738 q0 50 -17 75q-13 18 -52 39z" />
<glyph unicode="c" horiz-adv-x="761" d="M12 342l2 16q21 167 149 252q116 77 280 77q79 0 157 -17v-161q-66 70 -195 70q-110 0 -175.5 -66.5t-65.5 -177.5q11 -121 100 -189q83 -65 207 -65q150 0 221 71l-79 -150q-77 -30 -178 -30q-170 0 -287 87q-136 101 -136 283z" />
<glyph unicode="d" horiz-adv-x="852" d="M12 346q0 134 83 240q100 128 274 128q127 0 216 -91v244q0 36 -13 54q-9 12 -44 38h32h70q42 1 97 12v-819q0 -53 8 -75q13 -36 60 -75h-197v371q0 104 -57.5 165.5t-160.5 61.5q-105 0 -160 -77q-48 -68 -48 -177q15 -105 74 -174q67 -77 167 -77q77 0 151 45l-93 -138 q-44 -4 -83 -4q-147 0 -244 66q-132 90 -132 282z" />
<glyph unicode="e" horiz-adv-x="821" d="M12 335q0 129 86 233q102 124 275 124h19q152 0 243.5 -91t91.5 -243h-545q0 -101 63 -180q71 -89 204 -95l43 -2h12q47 0 98 14q70 20 125 69l-72 -138q-98 -45 -214 -45q-163 0 -290 93q-139 103 -139 261zM182 451h382q-13 58 -81 105q-33 33 -103 33q-68 0 -123 -36 q-58 -38 -75 -102z" />
<glyph unicode="f" horiz-adv-x="593" d="M12 579l79 101v117q0 54 34 98q57 74 153 98q50 12 106 12q55 0 122 -13l-114 -114q-54 23 -87 23q-87 0 -87 -114v-107h43q120 0 152 12v-136q-20 23 -80 23h-115v-405q0 -121 68 -172h-262q67 48 67 115v462h-79z" />
<glyph unicode="g" horiz-adv-x="867" d="M-75 -136q0 59 44 93q40 31 101 31q72 0 72 -33q-47 0 -47 -70q0 -73 86 -109q63 -27 147 -27q263 0 263 152q0 72 -90 103q-70 24 -175 24h-16l-110 -2l-12 -2q-37 0 -70 31.5t-33 67.5q0 69 103 85q-81 25 -131.5 92t-50.5 151q0 117 115 185q95 56 221 56h423 q-17 -126 -101 -126q-22 0 -117 23q91 -69 91 -158q0 -129 -96 -186q-52 -31 -180 -53q-97 -17 -97 -46l4 -6q0 -4 151 -24q162 -21 190 -33q123 -51 134 -172q0 -146 -148 -215q-103 -48 -268 -48q-157 0 -271 52q-132 60 -132 164zM161 455q0 -33 14 -64q15 -36 37 -56 q65 -60 132 -60q84 0 123 83q10 21 10 68q0 132 -149 163q-167 0 -167 -134z" />
<glyph unicode="h" horiz-adv-x="821" d="M2 2q81 27 81 127v715q0 87 -69 127h103q72 0 91 21v-379q27 41 106 67q67 22 127 22q114 0 176.5 -67.5t62.5 -183.5v-311q0 -61 22 -94q14 -21 51 -44h-267q38 16 49 49q7 21 7 66v303q0 180 -158 180q-66 0 -114 -37q-52 -40 -52 -105l2 -17v-301q0 -72 20 -98 q15 -20 72 -40h-310z" />
<glyph unicode="i" horiz-adv-x="366" d="M6 2q69 43 69 115v439q0 58 -20 87q-27 26 -38 37q15 0 44 -2t43 -2q92 0 108 28v-587q0 -45 15 -68q12 -20 53 -47h-274zM28 872q0 73 93 73q104 0 104 -78q0 -43 -26.5 -74.5t-69.5 -31.5q-43 -1 -71 31q-30 34 -30 80z" />
<glyph unicode="j" horiz-adv-x="305" d="M-65 -316q124 66 124 239v643q0 53 -19 79l-38 35q20 0 60.5 -2t60.5 -2q65 0 85 16v-791q0 -102 -73 -162q-69 -55 -173 -55h-27zM26 856q0 79 71 79h20q91 0 91 -79q0 -39 -26 -68t-65 -29q-78 0 -91 97z" />
<glyph unicode="k" horiz-adv-x="852" d="M6 2q79 28 79 127v715q0 49 -16 77q-10 18 -52 58l93 -4h15q50 0 87 17v-840q0 -108 79 -150h-285zM233 384l187 205q21 23 21 42t-32 49h240l-263 -275l229 -288q68 -86 140 -115h-164q-56 0 -101 57z" />
<glyph unicode="l" horiz-adv-x="348" d="M6 2q69 25 69 104v704q0 98 -17 123q-30 20 -52 38q19 0 57.5 -3t57.5 -3q61 0 91 27v-840q0 -106 68 -150h-274z" />
<glyph unicode="m" horiz-adv-x="1335" d="M17 2q46 24 59 55q9 21 9 72v367q0 130 -57 184q18 0 54 -4t54 -4q53 0 89 20v-113q22 53 82 85q55 28 117 28q74 0 135 -33q67 -37 90 -103q28 62 108 100q71 33 146 33q127 0 194 -86q60 -77 60 -209v-288q0 -40 10 -60q18 -36 71 -44h-299q49 17 65 47q14 24 14 80 v276q-7 75 -51 124q-48 52 -121 52q-62 0 -109.5 -39.5t-54.5 -100.5v-289q0 -120 73 -150h-265q41 28 47 36q21 27 21 79v218q0 100 -39 168q-48 82 -141 82q-62 0 -107.5 -41.5t-45.5 -102.5v-312q0 -113 66 -127h-274z" />
<glyph unicode="n" horiz-adv-x="835" d="M14 2q41 22 57 41q24 28 24 74v439q0 56 -15 83q-11 20 -42 41q16 0 49 -2t49 -2q59 0 84 28v-115q65 113 223 113q110 0 179.5 -68.5t69.5 -178.5v-315q0 -123 71 -138h-277q44 23 52 35q18 26 18 103v301q0 70 -54 115q-51 42 -122 42q-65 0 -111 -42q-52 -46 -52 -111 q0 -7 1 -14l2 -26v-253q0 -133 81 -150h-287z" />
<glyph unicode="o" horiz-adv-x="852" d="M14 335q0 190 154 294q93 63 226 63h23q128 0 231 -89q115 -99 115 -251v-17q0 -158 -111 -258q-108 -96 -268 -96q-161 0 -264 96q-106 99 -106 258zM164 346q0 -113 58 -185q62 -78 172 -78q103 0 164 69q59 66 59 170q0 102 -54 180q-60 87 -158 87h-11 q-83 0 -142 -42q-88 -63 -88 -201z" />
<glyph unicode="p" horiz-adv-x="894" d="M-17 -295q80 28 80 115v744q0 88 -57 116q14 0 53 -2l40 -2q94 0 101 28v-104q89 98 245 98q134 0 224 -78q109 -94 109 -274q0 -148 -99 -253t-246 -105q-66 0 -117 14l-91 138q90 -55 180 -55q185 0 220 204q0 8 2 23t2 23q0 101 -53 173q-59 81 -156 81 q-120 0 -170 -54.5t-50 -176.5v-481q0 -143 69 -172h-286z" />
<glyph unicode="q" horiz-adv-x="835" d="M6 322q0 137 81 231q101 117 299 117h379q-57 -60 -57 -148v-690q0 -66 24 -98q28 -24 33 -29h-252q68 36 68 138v713q-98 16 -150 16q-276 0 -276 -237q0 -109 74.5 -183.5t183.5 -74.5q56 0 121 29l-67 -114q-53 -11 -115 -11q-163 0 -261 112q-85 98 -85 229z" />
<glyph unicode="r" horiz-adv-x="532" d="M6 2q27 10 48 47t21 68v439q0 54 -16 85q-9 17 -42 51l119 -3h7q54 0 69 15v-104q52 98 163 98q28 0 58 -6v-136q-15 27 -73 27q-76 0 -117 -67q-35 -57 -35 -138l4 -20v-218q0 -104 68 -138h-274z" />
<glyph unicode="s" horiz-adv-x="670" d="M6 164q126 -89 278 -89q140 0 159 89v14q0 46 -104 86q-174 67 -194 78q-105 60 -105 154q0 186 282 186q94 0 168 -12v-128q-101 43 -189 43q-82 0 -113 -43q-10 -14 -10 -24q0 -36 104 -77q157 -62 193 -83q104 -60 104 -140q0 -58 -45 -123q-83 -119 -283 -119 q-133 0 -200 50z" />
<glyph unicode="t" horiz-adv-x="534" d="M12 579v57q170 0 170 252h57v-218h122q52 0 76 10v-138q-17 37 -93 37h-105v-335q0 -66 37 -111q40 -48 104 -48q39 0 69 21l-80 -114q-20 -4 -59 -4q-88 0 -141.5 55t-53.5 143v393h-103z" />
<glyph unicode="u" horiz-adv-x="852" d="M14 680q68 -8 92 -8q61 0 114 20v-415q0 -72 43.5 -121.5t114.5 -49.5q62 0 107.5 43t56.5 106v301q0 88 -56 124q52 -8 82 -8q70 0 112 20v-552q0 -61 22 -94q14 -21 51 -44h-211v104q-11 -59 -77 -92q-56 -28 -123 -28q-111 0 -182 61q-77 64 -77 173v322q0 72 -25 103 q-32 24 -44 35z" />
<glyph unicode="v" horiz-adv-x="941" d="M8 670h27q146 0 179 10l244 -528l171 380q11 24 11 61q0 61 -47 77h234l-346 -702q-80 39 -120 90q-31 40 -66 116l-159 348q-21 45 -51.5 85t-76.5 63z" />
<glyph unicode="w" horiz-adv-x="1289" d="M8 670q78 0 104 2q64 5 81 20l193 -506l140 336q16 38 16 71q0 45 -40 77h196q0 -47 22 -104l152 -392l137 348q15 38 15 67q0 49 -39 81h200l-291 -689q-56 8 -96 56q-30 36 -64 127l-117 311l-193 -494q-54 7 -94 45q-26 25 -59 80l-182 450q-37 91 -81 114z" />
<glyph unicode="x" horiz-adv-x="914" d="M14 2l321 371q-30 38 -91 114q-53 66 -92 106q-49 50 -93 77h161q42 0 137 -115q56 -68 84 -90l91 101q34 38 34 57q0 21 -34 47h255l-278 -297l183 -244q28 -37 64 -71q33 -31 75 -56h-139q-39 0 -58 7q-29 11 -68 50l-161 218l-128 -148q-38 -53 -38 -72q0 -30 50 -55 h-275z" />
<glyph unicode="y" horiz-adv-x="867" d="M-19 -251l136 94q46 -31 87 -31q80 0 143 122q18 35 33 80q-41 46 -79 126l-195 416q-26 55 -51 78q-7 6 -53 36h127q44 0 65 -13q16 -12 37 -57l210 -460l172 426l4 27q0 55 -61 77h229l-310 -735q-53 -100 -86 -134q-84 -87 -215 -87q-86 0 -193 35z" />
<glyph unicode="z" horiz-adv-x="791" d="M8 2l403 564l-25 -2q-6 0 -69 2l-80 2h-4q-132 0 -188 -59l78 161h528l-390 -553q32 0 141 -12q54 -6 84 -6q136 0 234 65l-80 -162h-632z" />
<glyph unicode="{" horiz-adv-x="399" d="M2 405q127 21 127 117v334q15 76 76 100q38 15 117 15q-43 -34 -46 -38q-24 -32 -32 -112v-265q0 -118 -102 -151q102 -17 102 -161v-230q0 -90 5 -106q12 -39 73 -65q-6 0 -19 -2t-19 -2q-155 0 -155 153v273q0 125 -127 140z" />
<glyph unicode="|" horiz-adv-x="182" d="M2 2v969h102v-969h-102z" />
<glyph unicode="}" horiz-adv-x="384" d="M12 -168q47 16 62.5 40.5t15.5 74.5v29q-1 18 -1 28v251q0 69 13 93q19 35 91 57q-104 16 -104 151v284q0 11 1 22q0 77 -78 109q108 0 151 -39t43 -145v-231q0 -66 25 -98.5t89 -52.5q-114 -42 -114 -150v-263q0 -160 -161 -160h-33z" />
<glyph unicode="~" horiz-adv-x="821" d="M14 316q66 139 219 139q96 0 183 -45.5t138 -45.5q92 0 128 103l71 -73q-93 -141 -206 -141q-55 0 -131 31q-107 44 -126 49q-40 11 -70 11q-93 0 -137 -100z" />
<glyph unicode="&#xa1;" horiz-adv-x="802" d="M8 630q44 95 151 149q96 48 209 48h31q99 0 155 -33q70 -28 99 -58q43 -44 43 -100v-593q0 -13 15 -43h-171q18 13 18 43v577q-5 44 -72 68q-50 17 -106 17q-129 0 -179 -69q20 -6 38.5 -33.5t18.5 -48.5l-2 -20q-79 -17 -79 -77v-406q0 -20 14 -45v-6h-162q0 5 6 22 t6 29v404q0 77 64 109q-34 51 -97 66z" />
<glyph unicode="&#xa2;" horiz-adv-x="705" d="M16 171v274q0 61 55 97t55 55q-7 54 -77 54q-15 0 -33 -3v144q23 14 94 14q99 0 140 -54q33 -44 33 -104q0 -76 -47 -122q-13 -21 -52 -51q-25 -19 -25 -53v-201q13 -96 103 -111q8 0 31 -5q156 0 156 100v553q0 12 -12 28t-23 16h193q-18 -36 -18 -56v-527 q0 -225 -277 -225h-50q-218 0 -246 177z" />
<glyph unicode="&#xa3;" horiz-adv-x="705" d="M16 173v282q0 62 45 94q50 36 59 93v20q0 112 -97 144q6 14 30 14q17 0 93 -29q37 -14 55 -14q33 0 47 37q35 -22 35 -111q0 -99 -39 -147l-68 -60q-15 -21 -15 -66v-215q8 -55 34 -76q17 -14 69 -27l32 -2q55 -3 100.5 24.5t45.5 80.5v547q0 24 -22 40h196 q-29 -22 -29 -50v-529q0 -235 -268 -235h-40q-263 0 -263 185z" />
<glyph unicode="&#xa4;" horiz-adv-x="872" d="M8 347q0 172 81 306q101 167 341 167q113 0 196 -43q102 -53 113 -155v-571q0 -16 9 -28.5t18 -22.5h-181q1 5 9 18q5 10 5 25v542q-35 97 -171 97q-97 0 -170 -54q-103 -95 -103 -271q0 -130 60 -206q12 76 54 164q47 98 88 111h177q6 0 6 -13q0 -29 -16 -35 q-84 -31 -138 -161q-39 -94 -55 -217l-234 2q-89 132 -89 345z" />
<glyph unicode="&#xa5;" horiz-adv-x="872" d="M8 345q0 156 52 275q42 97 118 152q66 48 141 48h22l99 -66l94 66q80 0 142 -54q63 -57 63 -136v-579q0 -16 9 -28.5t18 -22.5h-169q14 22 14 43v546q0 30 -28 51q-25 18 -57 18q-65 0 -96 -53q-7 27 -42 45q-30 16 -61 16q-26 0 -42 -13q-66 -40 -102 -133 q-30 -78 -30 -167q0 -162 62 -215q11 57 55 161q53 127 87 127h177q6 0 6 -13q0 -29 -16 -35q-70 -28 -129 -159q-49 -109 -64 -219h-254q-24 41 -45 136q-24 109 -24 209z" />
<glyph unicode="&#xa6;" horiz-adv-x="897" d="M29 814q5 13 26 13q7 0 63 -25q27 -12 49 -12q30 0 56 26v-518q31 -168 234 -168q56 0 98 24q50 29 56 80v526q-4 10 -7 15q-10 17 -25 27h190q0 2 -12.5 -11.5t-12.5 -38.5v-577q-10 -77 -63 -127t-129 -50q-26 -4 -87 -4q-162 0 -231 75q-4 -19 -9 -39q-7 -26 -20 -30 h-170q29 27 40 47q20 37 20 95v536q0 110 -66 136z" />
<glyph unicode="&#xa7;" horiz-adv-x="831" d="M12 593l130 83q21 -149 48 -296q14 -75 48 -244q32 -10 85 -10q79 0 145 41q71 45 90 118q21 80 21 164q0 77 -42.5 138t-114.5 85h-79v148h64q151 0 227 -107q83 -117 83 -300q0 -156 -55 -246q-86 -141 -249 -167q-38 -6 -103 -6q-183 0 -192 49z" />
<glyph unicode="&#xa8;" horiz-adv-x="748" d="M8 630v141q82 53 201 53q96 0 185 -35q84 -33 140 -97t81 -133q27 -75 27 -152q0 -155 -84 -289q-102 -126 -318 -126q-30 0 -89 8q0 24 1 73t1 73q0 143 -37 207q-41 41 -81 83l2 13h197q37 0 57 -112q13 -77 13 -142v-51q-2 -10 -2 -14q58 17 83 29q46 22 76 62 q47 89 47 195q0 79 -44 150.5t-115 105.5q-74 22 -140 22q-121 0 -201 -64z" />
<glyph unicode="&#xa9;" horiz-adv-x="775" d="M0 500q0 10 8 18h143q22 -12 22 -82q0 -25 -3 -73.5t-3 -71.5q-2 -146 83 -179q47 -13 69 -13q84 0 137 59q48 54 48 255q0 157 -19 184q-48 93 -208 93q-164 0 -236 -70v155q111 49 263 49q294 0 330 -202l-4 -486q0 -74 30 -109q12 -14 24 -27h-178q-6 0 -29 26 q-11 13 -20 13q-59 -51 -168 -51q-113 0 -177 51q-39 40 -55 72q-22 45 -22 112q0 39 6 83v39q0 52 -12 84q-10 23 -29 71z" />
<glyph unicode="&#xaa;" horiz-adv-x="831" d="M33 794l2 8h153q54 -13 54 -75v-508q16 -93 150 -93q82 0 122 14q68 24 75 91q0 25 3 74.5t3 74.5q0 144 -73 203q-25 25 -44 34q-28 10 -56 21v77q87 25 113 85q15 35 15 126h157v-8q0 -144 -118 -215q138 -78 138 -315q0 -105 -24 -221q-41 -116 -121 -152 q-60 -27 -202 -27h-18q-102 0 -166 44q-74 51 -74 148l-2 492q0 44 -43.5 81t-43.5 41z" />
<glyph unicode="&#xab;" horiz-adv-x="831" d="M37 794q8 16 23 16q76 -39 99 -39q9 0 28 24q12 15 26 25q39 -5 39 -111q0 -53 -10 -133q-25 -201 -25 -247q0 -91 29 -130q46 -79 154 -79q56 0 113 29q67 34 78 85q14 64 14 125q0 234 -189 325v58q82 34 98 48q50 44 50 146h155q0 -136 -132 -227q150 -115 150 -341 q0 -67 -14 -169q-54 -144 -155 -185q-84 -34 -184 -34q-137 0 -207 63q-88 111 -88 240q0 50 10.5 148.5t10.5 147.5q0 145 -73 215z" />
<glyph unicode="&#xac;" horiz-adv-x="1353" d="M6 587q20 128 199 199q75 30 191 30q322 0 343 -207l3 -357q8 -63 79 -104q63 -36 132 -36q96 0 132 59v575q0 14 -12 34t-25 20h201q-7 -10 -13 -20q-5 -14 -5 -32l-4 -568q0 -107 -83 -160q-60 -38 -135 -38h-34q-145 0 -244 67l-24 -49h-181q1 4 35 25.5t34 67.5v471 q0 55 -75 90q-61 28 -140 28q-169 0 -213 -71q83 0 83 -77q-62 -4 -62 -118v-323q0 -45 31 -63q10 -6 31 -18q0 -9 -6 -12h-153q-48 0 -48 67q4 4 4 10v374q0 55 13 75q4 7 31 24q-11 37 -85 37z" />
<glyph unicode="&#xad;" horiz-adv-x="973" d="M85 426v94h757v-94h-757z" />
<glyph unicode="&#xae;" horiz-adv-x="843" d="M8 8q0 9 31.5 40t31.5 70v353q0 79 32 89q0 22 -22.5 36.5t-45.5 14.5q36 106 144 166q98 54 217 54q40 0 110 -11q79 -13 146 -69q75 -62 75 -138v-731q0 -134 -203 -134h-94q0 19 -16 42.5t-34 23.5q-16 0 -35 -23q-43 -51 -140 -51h-42q-9 2 -12 2v122q6 0 17.5 -2 t17.5 -2q49 0 94 26q98 57 114 57l32 -5q36 -11 58 -55q9 -19 22 -19q73 0 73 91v613q0 63 -67 97q-54 27 -124 27q-49 0 -101 -17q-64 -22 -80 -57q27 0 53.5 -25.5t26.5 -52.5q-5 -6 -27 -12q-35 -10 -35 -65v-372q0 -72 -52 -91h-161z" />
<glyph unicode="&#xaf;" horiz-adv-x="831" d="M0 2q60 47 60 91v347q0 82 56 104q-7 20 -36 30l-45 15q6 51 42 102q33 48 61 61q31 31 108 52q72 20 150 20q118 0 207 -40q114 -52 128 -154l-10 -756q0 -132 -79 -132h-193q-18 43 -36 43q-11 0 -37 -29q-12 -14 -17 -14h-101q-26 39 -39 39q-64 -45 -114 -45h-14v109 q43 0 67 18q20 21 41 42h59q11 0 32.5 -30t34.5 -30q9 0 31 28t32 28h54q7 0 43 -56h19q35 0 58 25.5t23 60.5l2 9v645q0 57 -73 88q-55 23 -122 23q-152 0 -193 -78q75 -38 75 -64l-14 -10q-13 -9 -34 -30q-13 -17 -13 -45v-407q0 -20 -12.5 -41t-31.5 -21h-167z" />
<glyph unicode="&#xb0;" horiz-adv-x="788" d="M8 620v142q123 56 248 54l112 -2q81 -1 115 87h175v-19q0 -104 -79 -130q111 -102 111 -303q0 -135 -55 -253q-59 -129 -166 -196q-56 -18 -157 -18q-46 0 -58 1q-48 4 -74 17q-10 99 -21 163q-37 211 -122 294h166q46 -52 76 -166q25 -95 25 -179q97 11 168 114 q66 97 66 198q0 145 -87 208q-56 50 -177 50q-147 0 -266 -62zM47 -130q36 7 48 11q49 17 56 50h58q8 0 19.5 -20t19.5 -23h6q10 0 21 13l21 28h63q21 -41 50 -41q33 18 33 57h157v-32q0 -123 -83 -142h-100q-56 0 -75 38q-19 -32 -43 -32h-75q-8 1 -34 26q-13 13 -18 13 q-8 0 -12 -4q-27 -27 -78 -27q-6 0 -17 2t-17 2v81z" />
<glyph unicode="&#xb1;" horiz-adv-x="885" d="M51 816q9 4 34 4q23 0 45 -20.5t35 -22.5q14 0 35 21.5t31 21.5q8 -4 17 -4v-188q33 77 142 133q101 53 191 53q11 0 55 -6q112 -30 112 -132v-619q0 -20 7.5 -33t15.5 -24h-186q0 -1 14 18t14 42v574q-20 44 -82 44q-80 0 -178.5 -100t-108.5 -182v-325q4 -30 24 -71 h-197q11 8 17 15q17 19 17 40v654q0 57 -54 107z" />
<glyph unicode="&#xb2;" horiz-adv-x="1407" d="M2 392q0 171 70 283q80 130 240 152l114 -75l100 58q10 10 47 10q76 0 139 -47q82 -61 82 -170v-359q0 -61 58 -100q51 -34 115 -34q57 0 108 31q60 37 60 95v491q0 39 -28 75h201q-14 -16 -18 -24q-7 -14 -7 -32v-531q0 -112 -89 -168q-74 -47 -192 -47q-52 0 -113 13 q-83 17 -95 47l-36 -60l-167 -8q27 30 35 43q23 38 23 81v477q0 29 -51 62q-47 31 -78 31q-28 0 -53 -26q-11 -12 -41 -55q-18 25 -46 47q-44 34 -82 34l-2 -26q-70 -22 -110 -89q-37 -61 -37 -139q0 -61 18 -139q20 -92 52 -126q74 35 119 114q34 60 34 101q0 21 -39 75 q0 8 10 18h155q20 -43 20 -93q0 -95 -71 -217q-54 -93 -124 -165h-201q-57 47 -92 183q-28 111 -28 209z" />
<glyph unicode="&#xb3;" horiz-adv-x="1324" d="M6 613q34 102 157 159q104 48 225 48q122 0 209 -47q103 -55 126 -164v-394q0 -41 51 -66q41 -19 87 -19q63 0 111 30q54 34 66 92v508q0 60 -38 60h198q-4 -10 -9 -16q-9 -12 -9 -42v-681q6 -26 28 -52q11 -13 32 -29h-170l-35 51q-47 -53 -184 -53q-25 0 -57 3 q-76 7 -83 7q-54 15 -91 58.5t-37 98.5v424q-34 99 -217 99q-123 0 -182 -77q66 -28 66 -71v-6q-66 -23 -66 -69v-386q0 -36 50 -79h-139q-45 0 -54 85v394q0 62 44 81q-2 19 -79 53z" />
<glyph unicode="&#xb4;" horiz-adv-x="885" d="M2 333q0 199 89 339q102 161 356 161q113 0 209 -55q114 -66 113 -171l-7 -552q0 -25 16 -40.5t16 -14.5h-207q29 23 29 62v511q-18 121 -190 121q-85 0 -151 -37q-75 -42 -100 -117q-29 -64 -29 -158q0 -148 53 -246q69 21 111 108q30 62 41 140q6 24 6 19q0 17 -32 40 t-32 32l3 13h204q10 -28 10 -64q0 -94 -64 -227q-61 -126 -134 -197h-192q-61 38 -93 151q-25 88 -25 182z" />
<glyph unicode="&#xb5;" horiz-adv-x="885" d="M6 357q0 185 65 307q83 156 252 156l119 -124l110 124q89 0 145 -46q61 -49 61 -136v-16l8 -553q0 -15 11 -32l23 -37l-197 -8q2 7 13.5 19t11.5 36l-4 552q-10 63 -84 63q-31 0 -64 -24t-46 -53q-9 33 -53 62t-79 29q-12 0 -19 -4q-23 -14 -25 -14q-114 -108 -114 -270 q0 -71 27 -162q18 -59 36 -98q44 4 102 108q48 85 63 146v12q0 36 -33 59.5t-33 25.5q1 7 6 15h198q14 -27 14 -70q0 -99 -81 -242q-77 -136 -146 -182h-222q-65 170 -65 357z" />
<glyph unicode="&#xb6;" horiz-adv-x="831" d="M6 593q27 117 151 180q104 54 237 54q109 0 197 -38q112 -48 126 -141v-597q0 -17 12.5 -32.5t12.5 -16.5l-204 -10q0 9 8 17q18 18 18 58v520q0 61 -72 90q-53 22 -124 22q-56 0 -109 -16q-71 -21 -86 -61q76 -19 83 -86q-63 -7 -63 -98v-335q0 -3 -2.5 -9.5t-2.5 -8.5 q0 -50 68 -97l-167 12q-24 2 -31 6q-15 9 -15 41q0 7 3 20t3 20v362q0 53 11 68q7 9 43 25q-11 51 -89 51h-8z" />
<glyph unicode="&#xb7;" horiz-adv-x="885" d="M43 800h162q31 -12 31 -126v-44q68 76 172 129q110 57 205 57q22 0 51 -6q94 -19 94 -135v-604q0 -30 17 -47t17 -24l-211 -8q14 13 32 75v577q-16 28 -59 28q-80 0 -196 -105q-122 -110 -122 -203v-297q0 -28 10.5 -41.5t23.5 -25.5h-203q9 9 15 16q13 15 13 61l-2 605 q0 67 -18 88z" />
<glyph unicode="&#xb8;" horiz-adv-x="762" d="M8 587l4 51q0 109 124 164q70 31 189 31q237 0 311 -87v-153q-28 47 -146 81q-99 29 -171 29q-87 0 -144 -52q-14 -16 -14 -48q0 -44 54 -55q41 -15 170 -25q123 -9 183 -35q88 -38 90 -126l4 -189q2 -101 -118 -155q-93 -41 -207 -41q-104 0 -186 34q-110 45 -110 135 v201h137v-132l10 -12q0 -48 61 -74q47 -21 102 -21q56 0 104 18q65 24 65 71v132q0 45 -132 54q-193 13 -247 31q-144 47 -133 173z" />
<glyph unicode="&#xb9;" horiz-adv-x="857" d="M23 812q0 5 10 17h168q35 0 35 -58l-2 -499q0 -59 56 -102q52 -40 113 -40q82 0 132 61q46 58 46 142v434q0 27 -11 41q-10 10 -20 21h204q-2 -3 -12 -15q-17 -21 -17 -47v-668q7 -52 67 -99h-191l-28 62q-97 -64 -226 -64q-117 0 -186.5 68.5t-69.5 185.5v461 q0 29 -23 56q-23 21 -45 43z" />
<glyph unicode="&#xba;" horiz-adv-x="872" d="M27 827h150q46 0 46 -75l-2 -516q0 -58 83 -86q58 -20 130 -20q186 0 186 128v530q0 11 -31 39h213q-17 -13 -36 -48v-580q-11 -108 -111 -162q-81 -43 -200 -43h-67q-113 0 -192 38q-101 47 -117 146v549q0 43 -26 68.5t-26 31.5z" />
<glyph unicode="&#xbb;" horiz-adv-x="843" d="M47 829h158q49 0 49 -102v-481q0 -58 48 -96q45 -34 105 -34q59 0 119 35q69 40 69 95v802q0 27 -12 43q-15 21 -17 29h192q-2 -8 -12 -28q-9 -15 -9 -38v-855q-14 -108 -121 -170q-91 -52 -209 -52q-116 0 -196 52q-93 60 -93 170v512q0 43 -25 73q-32 30 -46 45z" />
<glyph unicode="&#xbc;" horiz-adv-x="912" d="M8 95v649q0 49 13 66q8 10 34 17h170q-70 -59 -70 -90v-609l233 548q6 23 34 23q24 0 43 -15l193 -538v620q0 25 -14 39q-17 18 -18 22h209q-11 -12 -20 -19q-19 -15 -19 -48l-2 -669q0 -88 -61 -91l-165 -8l-85 245q-61 179 -70 220q-36 -81 -117 -301q-31 -84 -60 -156 h-131q-27 0 -40 4q-57 17 -57 91z" />
<glyph unicode="&#xbd;" horiz-adv-x="845" d="M2 124v624q0 41 13 59q5 7 45 22h159q-79 -51 -79 -98v-578l217 550q7 12 25 12q11 0 31 -12l180 -548v899q0 19 -14 33t-15 18h196v-6q-23 -23 -23 -51v-969q0 -76 -69 -79l-162 -8q-12 39 -45 136l-55 161q-28 84 -38 127q-10 -25 -43 -124q-10 -30 -52 -158 q-24 -75 -46 -134h-146q-79 0 -79 124z" />
<glyph unicode="&#xbe;" horiz-adv-x="996" d="M14 822l2 7h172q52 0 52 -116v-552l207 523q11 29 36 29q35 0 49 -37l189 -515v548q0 35 -12 64q-16 28 -31 56h215q-21 -63 -28 -116v-583q0 -130 -126 -130l-91 -8q-15 46 -50 140l-61 163q-36 97 -45 129l-76 -198q-54 -138 -97 -226h-148q-41 0 -64 50q-18 40 -18 86 v540q0 43 -23 80z" />
<glyph unicode="&#xbf;" horiz-adv-x="926" d="M37 829h170q37 0 37 -71v-597l176 501q9 26 22 26q22 0 33 -28l195 -487v834q0 44 -26 110l197 -8q-18 -29 -31 -86v-924q0 -48 -35 -75q-27 -21 -76 -24l-116 -8q-7 24 -98 253q-33 83 -45 127l-113 -372h-132q-38 0 -68 31t-30 70l4 23v587q0 47 -25 78q-20 20 -39 40z " />
<glyph unicode="&#xc0;" horiz-adv-x="831" d="M12 0q22 21 31 33q14 18 14 62v360q0 54 11 74q8 14 42 35q-11 33 -94 33q34 111 144 172q97 55 222 55h10q112 0 213 -46q128 -57 128 -156v-567q3 -24 15 -39t12 -16l-204 -8q13 13 26 27q9 14 9 34v532q-17 55 -94 84q-60 23 -129 23q-138 0 -180 -68q80 0 80 -86v-6 q-69 0 -69 -47v-420q0 -45 -15.5 -59.5t-37.5 -13.5z" />
<glyph unicode="&#xc1;" horiz-adv-x="914" d="M35 0q36 38 42 47q28 41 35 102v547q0 46 -20 82q-11 20 -41 51h154q53 -6 53 -98v-6l4 -398q10 -89 83 -143q69 -50 161 -50q128 0 160 61v557q0 31 -9 45q-2 3 -31 32h201q-31 -31 -31 -54l4 -591q1 -104 -81 -156q-69 -44 -179 -44q-175 0 -266 73l-34 -57h-205z" />
<glyph unicode="&#xc2;" horiz-adv-x="775" d="M6 609q0 42 17 83q53 128 225 128q53 0 85 -4v-163q-30 13 -95 13q-36 0 -55 -12q-14 -9 -18 -30l-2 -11q0 -73 139 -73l-4 -146q-135 -18 -135 -115q0 -24 14 -68q34 -81 156 -81q67 0 123 31q68 37 68 99v511q0 26 -10 39q-13 17 -14 19h211q0 -2 -21.5 -20.5 t-21.5 -48.5v-541q0 -117 -120 -183q-98 -54 -225 -54q-221 0 -276 130q-33 78 -33 140q0 150 98 205q-106 43 -106 152z" />
<glyph unicode="&#xc3;" horiz-adv-x="705" d="M8 564q0 42 12 84q52 183 278 183q71 0 146 -17q56 -13 96 -30v-160q-60 64 -244 64q-38 0 -78 -17q-46 -20 -57 -51q-6 -36 -6 -31q0 -48 77 -73q19 -6 161 -33q99 -19 138 -49q93 -72 93 -188q0 -150 -114 -219q-71 -43 -206 -43q-68 0 -140 15q-97 19 -123 56v154 q44 -27 117 -51q86 -28 152 -28q57 0 104 21q61 26 61 76v15q0 57 -69 82l-160 38q-114 27 -177 78q-61 41 -61 124z" />
<glyph unicode="&#xc4;" horiz-adv-x="762" d="M12 618q22 104 126 161q89 48 205 48q104 0 190 -40q103 -48 131 -136v-885q0 -21 13 -32q7 -6 7 -11v-8h-203q31 45 31 70v783q0 62 -62 98q-52 30 -119 30q-118 0 -156 -74q18 0 41.5 -28t23.5 -46q0 -8 -4 -8q-20 -12 -40 -23q-19 -16 -19 -52v-374q0 -38 25 -58 q35 -20 52 -33h-183q-41 0 -38 55l2 36v390q0 70 48 87v7q0 18 -20.5 30.5t-39.5 12.5h-11z" />
<glyph unicode="&#xc5;" horiz-adv-x="773" d="M0 250q0 207 171 286q84 39 162 39q108 0 187 -44q4 6 4 37q0 68 -67 100q-61 28 -147 28q-178 0 -287 -105v146q40 44 156 70q91 20 174 20q282 0 315 -161v-619q0 -21 24 -45l-192 -2q0 2 13 12.5t13 34.5v317q-25 74 -169 74q-51 0 -100 -17q-64 -23 -69 -64 q-18 -35 -27 -55q-12 -27 -12 -44q0 -50 57 -88q52 -34 104 -34q17 0 52 8v-144q-17 0 -52 -3t-52 -3q-120 0 -191 66q-67 62 -67 190z" />
<glyph unicode="&#xc6;" horiz-adv-x="843" d="M12 0q22 21 31 33q14 18 14 62v360q0 54 11 74q8 14 42 35q-11 33 -94 33q34 111 144 172q97 55 222 55h10q119 0 210 -44q110 -54 131 -158l4 -802q0 -19 7 -28.5t14 -18.5l-192 -4q10 9 21 18q14 17 14 42v754q-35 113 -221 113q-152 0 -192 -66q37 0 66 -25t29 -61v-4 q-84 -10 -84 -46v-417q0 -77 -59 -77h-128z" />
<glyph unicode="&#xc7;" horiz-adv-x="705" d="M2 658v136q76 37 184 37q118 0 218 -46q106 -49 156 -141q31 -57 43 -108q13 -59 13 -120q0 -79 -20 -150q-22 -77 -58 -126q-114 -154 -350 -154q-49 0 -131 14v149q45 -10 60 -13q34 -6 58 -6q123 0 213 74q95 78 95 199q0 62 -12 99q-29 89 -117 139q-80 45 -179 45 q-63 0 -173 -28z" />
<glyph unicode="&#xc8;" horiz-adv-x="829" d="M2 372q0 84 24 167q25 91 69 153q93 132 291 132q62 0 104 -10q34 17 44 31q7 10 10 37h175v-17q0 -92 -83 -132q83 -23 83 -160v-511q0 -27 17.5 -45t17.5 -17h-198q0 -2 14.5 12.5t14.5 36.5v530q0 55 -65 87q-52 26 -113 26q-67 0 -131 -29q-75 -34 -94 -90 q-33 -98 -33 -177q0 -96 33 -223q26 98 59 181q50 126 92 146h167q-115 -63 -182 -322q-15 -57 -39 -178h-198q-79 221 -79 372z" />
<glyph unicode="&#xc9;" horiz-adv-x="885" d="M33 829h190q35 0 35 -104v-483q0 -62 41.5 -100.5t103.5 -38.5q65 0 119 30q65 36 65 92v226l-21 -2q-47 0 -93 12q-65 18 -66 53l-2 126q35 -37 135 -37h39v168q0 20 -14 35q-19 22 -21 25h220l-18 -23q-13 -17 -15 -41l-10 -158h87v-152h-81v-286q-23 -92 -126 -143 q-85 -42 -192 -42q-246 0 -297 187v519q0 62 -30 95q-25 21 -49 42z" />
<glyph unicode="&#xca;" horiz-adv-x="762" d="M6 244q0 117 61 182q89 124 266 124q115 0 177 -26q4 12 4 42q0 67 -45 87q-18 19 -65.5 29t-93.5 10q-78 0 -151 -28q-85 -33 -118 -91v156q64 95 298 95h81q58 0 72 65h157q0 -59 -10 -81q-16 -33 -66 -42q72 -21 83 -138v-571q0 -21 7 -34q4 -8 19 -23h-186 q8 10 15 20q11 17 11 42v326q-58 25 -165 25q-72 0 -126 -29q-65 -34 -76 -99q-6 -20 -6 -41q0 -112 188 -112l2 -132h-56q-235 0 -267 161q-10 51 -10 83z" />
<glyph unicode="&#xcb;" horiz-adv-x="870" d="M23 816q3 11 4 13h153q33 0 44 -7q26 -17 26 -74v-226q26 57 104 117q63 48 121 74l-83 -2v118h387v-124h-83q62 -24 62 -81v-555q0 -29 7 -45l16 -24h-192l18 30q6 17 6 39v520q-13 10 -43 10q-93 0 -204 -150q-101 -137 -116 -240v-154q0 -20 15 -39q4 -5 16 -16h-210 q34 26 34 49v654l-4 2q0 48 -24 74q-27 18 -54 37z" />
<glyph unicode="&#xcc;" horiz-adv-x="1009" d="M41 831h164q53 0 53 -71v-605l207 597q8 23 31 23q21 0 35 -23l217 -568v549q0 40 -26 64l-58 36v126q3 0 4 -1t2 -1q109 0 109 134h147v-29q0 -125 -89 -169q60 -27 60 -109v-613q0 -50 -27 -105q-31 -66 -76 -66h-126q-18 98 -111 326l-57 141q-16 -47 -50 -137 l-64 -172q-34 -99 -49 -158h-138q-42 6 -61 38q-24 38 -20 88l2 25v545q0 58 -33 89q-45 42 -46 46z" />
<glyph unicode="&#xcd;" horiz-adv-x="845" d="M12 302q0 124 59 198h254v-12q0 -15 -75 -57t-83 -92q0 -193 188 -193h63q24 0 37 3q148 34 148 247q0 117 -41 187q-30 50 -104 79q-63 24 -131 24q-182 0 -265 -83v151q104 66 275 66q239 0 355 -167q62 -89 62 -240q0 -299 -214 -391q-79 -34 -168 -34q-175 0 -268 94 q-92 91 -92 220z" />
<glyph unicode="&#xce;" horiz-adv-x="845" d="M12 323q0 152 59 213h206q-105 -93 -109 -132q-5 -43 -5 -65q0 -82 44 -141q49 -64 128 -64q48 0 110 21q164 56 164 271q0 70 -35 139.5t-93 102.5t-138 33q-81 0 -174 -35q-67 -25 -112 -55v151q124 71 274 71q63 0 120 -6q30 9 30 66q0 21 -4 31h193q0 -103 -69 -147 q161 -121 161 -351q0 -90 -25 -166q-43 -132 -168 -206q-104 -62 -232 -62q-155 0 -232 77q-93 74 -93 254z" />
<glyph unicode="&#xcf;" horiz-adv-x="649" d="M8 731q0 72 33 98h156q-40 -26 -40 -87q0 -16 12 -72q19 -91 118 -91q36 0 65.5 22t29.5 57v84q0 38 -8 58q-2 6 -17 29h195q-8 -12 -14 -24.5t-6 -29.5v-724q0 -29 13 -42q7 -7 7 -9h-184l14 18q6 11 6 42v421q-20 -28 -120 -28q-75 0 -136 35q-73 42 -105 130 q-19 52 -19 113z" />
<glyph unicode="&#xd0;" horiz-adv-x="455" d="M2 69v142q82 -23 169 -23q129 0 191 56v-167q-54 -44 -169 -44q-112 0 -191 36zM2 597v145q106 -25 176 -25q130 0 184 58v-166q-55 -45 -174 -45q-113 0 -186 33z" />
<glyph unicode="&#xd1;" d="M-496 1170h207q0 -35 22 -69.5t54 -42.5q77 -20 136 -20q78 0 159 24q96 28 139 75v-137q-92 -88 -318 -88q-267 0 -343 105q-56 77 -56 153z" />
<glyph unicode="&#xd2;" horiz-adv-x="609" d="M6 585v163q8 41 108 65q74 18 136 18q102 0 169 -41q79 -49 79 -146l-2 -577q0 -16 8 -37.5t8 -29.5h-181q6 11 13 23q7 17 7 48v516q0 105 -128 105q-174 0 -217 -107z" />
<glyph unicode="&#xd3;" horiz-adv-x="609" d="M-312 1048q0 47 33 82.5t80 35.5q49 0 85.5 -34.5t36.5 -83.5q0 -50 -36 -86t-86 -36q-47 0 -80 37t-33 85zM6 585v163q8 41 108 65q74 18 136 18q102 0 169 -41q79 -49 79 -146l-2 -577q0 -16 8 -37.5t8 -29.5h-181q6 11 13 23q7 17 7 48v516q0 105 -128 105 q-174 0 -217 -107z" />
<glyph unicode="&#xd4;" d="M-847 944v141q75 16 153 16q79 0 178 -14q234 -33 266 -33q70 0 120 24l-2 -136q-74 -28 -161 -28q-60 0 -149 14q-197 31 -263 31q-58 0 -142 -15z" />
<glyph unicode="&#xd5;" d="M-849 953v172q16 0 47.5 3t47.5 3q81 0 170 -19q30 -6 136 -35q70 -19 101 -19q23 0 45 12v96h192l5 -224q-101 -28 -193 -28q-68 0 -163 14q-210 31 -276 31q-26 0 -40 -1z" />
<glyph unicode="&#xd6;" d="M-843 948v169l70 3q53 2 157 -19l213 -43q21 0 25 8v6q0 51 39 84.5t91 33.5q96 0 116 -81l4 -47q4 -44 -26 -87t-134 -55q-28 -4 -55 -4q-67 0 -154 11q-207 26 -259 26q-56 0 -87 -5zM-289 1072q0 -49 45 -49q39 0 39 49q0 53 -39 53q-45 0 -45 -53z" />
<glyph unicode="&#xd7;" d="M-863 961v170l63 2q58 2 168 -22q101 -22 132 -22q23 0 49 8v105l143 2v-107h64v105h130v-235q-47 -47 -177 -47q-71 0 -168 11l-195 23q-99 11 -152 11q-10 0 -28.5 -2t-28.5 -2z" />
<glyph unicode="&#xd8;" d="M-345 -95h159q74 -17 74 -85v-200h-179v173q0 58 -54 112z" />
<glyph unicode="&#xd9;" d="M-682 -93l2 6h164q45 -12 45 -62q-4 -8 -4 -18v-21q0 -78 55 -89l48 -2q38 -2 64 13q31 17 36 57q8 32 8 48q0 27 -17 45t-17 17v4h197q-25 -34 -25 -56v-93q-13 -85 -95 -132q-70 -40 -163 -40q-85 0 -150 36q-79 43 -79 122v83q0 27 -69 82z" />
<glyph unicode="&#xda;" d="M-343 -231q0 50 35 86.5t85 36.5q48 0 81.5 -37t33.5 -86q0 -48 -33.5 -85t-81.5 -37q-50 0 -85 36t-35 86z" />
<glyph unicode="&#xdb;" d="M-1074 938v143q75 16 152 16q79 0 179 -14q235 -33 268 -33q68 0 118 24l-2 -136q-74 -28 -161 -28q-54 0 -251 30q-98 15 -161 15q-59 0 -142 -17z" />
<glyph unicode="&#xdc;" d="M-1109 948v172q83 7 96 7q78 0 216 -36.5t188 -36.5q21 0 47 12v95h192l2 -223q-92 -28 -190 -28q-68 0 -163 14q-210 31 -277 31q-19 0 -56 -3.5t-55 -3.5z" />
<glyph unicode="&#xdd;" d="M-1078 944v167q30 6 69 6q64 0 157 -20l214 -45q17 0 25 10v6q0 51 39 84.5t91 33.5q94 0 115 -81l4 -47q4 -44 -25.5 -87t-134.5 -55q-28 -4 -55 -4q-63 0 -153 11q-206 25 -259 25q-56 0 -87 -4zM-524 1068q0 -49 43 -49q41 0 41 49q0 52 -41 52q-43 0 -43 -52z" />
<glyph unicode="&#xde;" d="M-1107 944v169q11 0 31.5 2t31.5 2q52 0 152 -22.5t150 -22.5q31 0 48 9v105h142v-105h67v105h128v-238q-45 -47 -177 -47q-71 0 -168 11l-195 23q-111 12 -151 11z" />
<glyph unicode="&#xdf;" horiz-adv-x="800" d="M2 2q55 43 55 122v684q0 92 -55 122h281v227h109v-231q100 -14 163 -64q75 -59 75 -153q0 -59 -37 -110t-93 -67q98 -32 147 -76q74 -66 74 -179q0 -145 -119 -218q-90 -55 -210 -55v-175h-109v173h-281zM211 112q-12 0 72 -7v352l-72 -2v-343zM211 554q8 0 24.5 -2 t24.5 -2h23v279q-34 2 -53 2h-19v-277zM392 103q162 15 162 155v19q0 138 -162 172v-346zM392 575q73 29 73 97v24q-11 88 -73 114v-235z" />
<glyph unicode="&#xe0;" horiz-adv-x="298" d="M14 829h195q-14 -10 -17 -13q-10 -13 -10 -37v-669q12 -80 82 -110h-169q-54 0 -54 73v698q0 33 -9 41.5t-18 16.5z" />
<glyph unicode="&#xe1;" horiz-adv-x="609" d="M43 829h201q-5 -6 -14 -19q-21 -30 -21 -58l-2 -649q0 -42 37 -70l58 -33h-176q-59 11 -59 81v679q0 30 -9 46q-8 11 -15 23zM323 829h203q-12 -11 -19 -18q-15 -15 -15 -40v-668q5 -39 37 -67q16 -14 56 -36h-176q-62 12 -62 81v671q0 33 -9 51q-8 13 -15 26z" />
<glyph unicode="&#xe2;" horiz-adv-x="258" d="M-85 1283v161q100 71 199 71q64 0 148 -32q183 -70 213 -70q16 0 31 4l25 7v-143q-33 -12 -52 -12q-44 0 -111 25l-136 49q-68 25 -106 25q-28 0 -45 -10q61 -61 61 -172v-1060q0 -53 39 -97q14 -15 34 -37l-148 8q-79 4 -79 101l2 17v1062q-6 31 -75 103z" />
<glyph unicode="&#xe3;" horiz-adv-x="492" d="M-97 1235q0 112 68 194q72 86 182 86h46q183 0 217 -191v-20q0 -61 -18 -111q-11 -29 -26 -68v-1005q20 -102 77 -128h-175q-47 29 -47 77l2 22l-2 1038q27 44 27 113q0 57 -25 99q-34 36 -87 36q-41 0 -69 -42q-26 -38 -26 -81v-12l4 -27h-146z" />
<glyph unicode="&#xe4;" horiz-adv-x="556" d="M-67 1279v149q33 -10 69 -10q59 0 183 40t179 40q86 0 130 -70q26 -54 26 -102q0 -104 -82 -148v-1068q4 -41 22 -66l48 -44h-155q-34 17 -42 30q-16 24 -16 63v1097q28 73 28 104q0 20 -11 30q-22 11 -52 11q-18 0 -95.5 -33t-137.5 -33q-37 0 -94 10z" />
<glyph unicode="&#xe5;" horiz-adv-x="609" d="M8 581v165q8 36 105 58q71 16 129 16q237 0 254 -172v-666q0 -34 7.5 -48.5t16.5 -28.5h-195l20 26q6 15 6 46v577q0 57 -46 92q-42 32 -100 32q-56 0 -116 -23q-74 -28 -81 -74z" />
<glyph unicode="&#xe6;" horiz-adv-x="568" d="M-2 649v11l4 156q35 8 60 8q89 0 115 -60q60 60 127 60q11 0 34 -2t34 -2q79 -15 79 -91v-690q0 -13 9.5 -23t14.5 -16h-182q14 11 16 14q5 8 5 29v645q-8 11 -56 11q-11 0 -53 -37q-21 -18 -38 -18l-6 4q-34 59 -70 59q-15 0 -61 -39q-22 -19 -32 -19z" />
<glyph unicode="&#xe7;" d="M-587 903v190q0 60 58.5 113t119.5 53h50q38 0 122 -13q39 -6 59 -6q42 0 87 31l-4 -140q-5 -20 -66 -20q-34 0 -102.5 9t-102.5 9h-14q-54 0 -54 -57q0 -16 8 -59l10 -2q12 0 41.5 31.5t47.5 31.5h17q20 0 81 -47q15 -6 34 -6q58 0 100 51v-134q-38 -40 -112 -37l-43 2 q-20 1 -73 62q-19 0 -45 -33q-18 -22 -26 -29h-193z" />
<glyph unicode="&#xe8;" d="M-277 1246v269h165v-269h-165z" />
<glyph unicode="&#xe9;" d="M-461 1283v4q0 12 39 66q19 26 19 50q0 41 -52 118h162q22 0 37 -21q18 -24 16 -64l-2 -33l11 -4q98 0 188 70v-137q-26 -44 -118 -68q-71 -18 -141 -18q-112 0 -159 37z" />
<glyph unicode="&#xea;" d="M-536 1257q0 102 24 149q34 65 126 65h18q31 -22 60 -53q20 -21 25 -21q10 5 43 22q45 23 62 23q45 0 81 -51q16 -12 28 -12q20 0 75 43v-133q-19 -51 -105 -51q-46 0 -62 19q-21 61 -62 61h-6l-54 -51l-76 61q-29 0 -29 -45v-24l-4 -2h-144z" />
<glyph unicode="&#xeb;" d="M-432 1473q74 -17 68 -17h71v55q0 18 -15 45h180q0 -11 -12 -31q-6 -10 -6 -16v-46h61q8 0 21 3q31 7 41 7v-153q-22 16 -54 19h-74v-50q0 -26 17 -49h-180q11 14 21 29l-5 59h-80q-13 0 -48 -14z" />
<glyph unicode="&#xec;" d="M-370 1259q0 70 47 126q92 109 315 109q58 0 85 -4l4 -141q-75 -1 -126 -4q-56 -3 -77 -15q-39 -8 -39 -45q0 -13 5 -28q1 -5 5 -15h-208q-11 0 -11 17z" />
<glyph unicode="&#xed;" d="M-312 1048q0 47 33 82.5t80 35.5q49 0 85.5 -34.5t36.5 -83.5q0 -50 -36 -86t-86 -36q-47 0 -80 37t-33 85z" />
<glyph unicode="&#xee;" d="M-513 1031q0 -58 66 -98q58 -34 120 -34q50 0 115 37q21 12 55 37l-52 67q5 -5 5 -9q0 -17 -58 -30q-30 -7 -51 -7q-45 0 -45 27q0 5 5 17q14 24 29 29q36 6 108 17q34 4 36 5l-8 44q-26 6 -34 8q-36 11 -42 23q-6 54 72 54q9 0 18 -1l19 -2q10 0 110 -15l-14 100 q-17 3 -41 5q-51 5 -73 5q-101 0 -175 -21q-90 -26 -99 -76q-4 -24 37 -48q13 -7 44 -20q-22 -3 -54 -12q-93 -26 -93 -102z" />
<glyph unicode="&#xef;" horiz-adv-x="764" d="M16 417q0 123 83 213q88 95 225 95q123 0 212 -84q95 -90 95 -225q0 -123 -84 -212q-90 -95 -223 -95q-123 0 -212 84q-96 91 -96 224zM94 418q0 -95 67 -162t160 -67q94 0 160.5 67.5t66.5 161.5t-67 161t-160 67q-92 0 -159.5 -66.5t-67.5 -161.5zM172 422q0 59 39 102 q44 48 112 48q60 0 105 -40q47 -44 47 -111q0 -57 -41 -102q-46 -50 -111 -50q-59 0 -102 39q-49 44 -49 114z" />
<glyph unicode="&#xf0;" horiz-adv-x="788" d="M12 400q0 173 86 290q96 130 264 130q161 0 254 -111q87 -105 87 -269v-40q0 -166 -82 -283q-93 -131 -253 -131h-27q-165 0 -253 129q-76 112 -76 285zM178 392q0 -108 40 -185q50 -97 148 -97q100 0 148 97q38 75 38 185q0 112 -37 187q-48 97 -149 97q-99 0 -149 -98 q-39 -77 -39 -186z" />
<glyph unicode="&#xf1;" horiz-adv-x="392" d="M2 696q115 31 242 139l-2 -742q0 -41 25 -65q18 -14 37 -28h-277l49 31q19 20 19 70v535q-17 19 -34 30q-7 5 -59 30z" />
<glyph unicode="&#xf2;" horiz-adv-x="692" d="M2 524q0 122 60 213q29 45 107 70q64 20 129 20q215 0 252 -165v-51q0 -167 -132 -354q-39 -55 -110 -137q20 0 61 3t61 3q135 0 204 52l-100 -178h-520q15 20 117 125q95 98 150 175q82 115 115 232q7 11 7 36q0 35 -33.5 75t-67.5 43l-15 -4q-47 0 -86 -31 q-53 -42 -48 -101l2 -26h-153z" />
<glyph unicode="&#xf3;" horiz-adv-x="638" d="M6 23l2 140q99 -58 197 -58q40 0 111 15q82 40 82 116q0 38 -14 60q-18 38 -81 55q-53 14 -110 13l-83 -2q-5 0 -7 2v136q5 0 14 -2t13 -2q190 0 223 93q0 101 -109 114h-29q-117 0 -172 -55v136q86 47 205 47q70 0 130 -19q97 -31 125 -116q13 -39 13 -76 q0 -56 -24 -104q-29 -56 -78 -67q65 0 105 -70q33 -59 33 -129q0 -108 -75 -183q-85 -85 -246 -85q-116 0 -225 41z" />
<glyph unicode="&#xf4;" horiz-adv-x="816" d="M12 175l356 627h207v-500h103q49 0 74 17l-27 -144h-152v-113q9 -40 36 -62h-215q40 29 40 140v35h-422zM234 306h206v334z" />
<glyph unicode="&#xf5;" horiz-adv-x="664" d="M-2 180q124 -50 221 -50q67 0 124 30q70 37 70 98l-4 35q-33 127 -223 127q-53 0 -127 -34l-57 -27l73 443h431v-130h-315l-16 -128q33 6 81 6q168 0 254 -118q42 -58 42 -160q0 -94 -28 -152q-61 -128 -276 -128q-119 0 -236 39z" />
<glyph unicode="&#xf6;" horiz-adv-x="723" d="M2 362q0 181 87 287q70 85 165 124q102 41 215 39l97 -2v-134q-15 0 -44.5 3t-44.5 3q-145 0 -235 -90q-70 -70 -91 -170q0 -8 -3.5 -24.5t-3.5 -23.5q0 -100 50 -170q55 -78 152 -78q29 0 50 10q38 18 73 60q39 46 39 83q0 12 -1 16q-4 8 -7 17q-41 124 -205 124 q-34 0 -51 -4l115 128q124 0 202 -68q81 -71 81 -194v-43q-2 -8 -4 -19q-20 -102 -78 -171q-62 -74 -153 -77l-56 -2q-111 -4 -212 76q-88 69 -112.5 158t-24.5 142z" />
<glyph unicode="&#xf7;" horiz-adv-x="692" d="M12 624l73 176h516l-239 -666q-17 -47 -17 -63q0 -29 21 -51l20 -20h-215l227 638q-16 40 -162 40q-147 0 -224 -54z" />
<glyph unicode="&#xf8;" horiz-adv-x="668" d="M0 229q0 160 122 226q-87 38 -87 154q0 38 14 87q19 67 83 107q60 38 132 38q8 0 24 2t24 2q204 0 246 -192q0 -6 3 -23.5t3 -26.5q0 -118 -83 -156q100 -59 100 -195v-20q0 -20 -2 -33q-31 -199 -286 -199h-31q-221 0 -256 171q-6 29 -6 58zM136 258l2 -14 q18 -46 37 -91q26 -33 121 -33q64 0 101 41q25 29 25 66v17q1 8 1 22q0 106 -149 106h-32q-19 0 -35 -4q-71 -41 -71 -110zM184 624q0 -49 41 -78q36 -26 87 -26q46 0 91 30q19 17 19 61q0 57 -22 73q-39 49 -109 49q-72 0 -90 -49q-17 -28 -17 -60z" />
<glyph unicode="&#xf9;" horiz-adv-x="748" d="M6 504q0 107 67 198.5t169 113.5q71 15 109 15q141 0 226 -93.5t85 -235.5v-45q-32 -305 -321 -441q-82 -22 -182 -22q-25 0 -53 2l-39 4l14 79q17 5 110 20q64 10 119 37q96 46 143 117q65 98 65 263v8q0 79 -54 123q-50 41 -131 41q-57 0 -97 -20t-69 -62 q-31 -45 -31 -88q0 -26 13 -55q67 -101 194 -101q17 0 87 14l-58 -116q-34 -14 -76 -14q-125 0 -239 105q-51 65 -51 153z" />
<glyph unicode="&#xfa;" horiz-adv-x="905" d="M8 719q0 69 33 97h147q-37 -25 -37 -89q0 -22 10 -69q9 -41 46 -66.5t80 -25.5q37 0 66 22t29 58v81q0 40 -8 60q-3 7 -17 29h195q-8 -11 -14 -22.5t-6 -29.5v-713q0 -29 13 -42q7 -7 7 -9h-184l14 18q6 11 6 42v407q-24 -27 -120 -27q-74 0 -136 35q-74 42 -105 128 q-19 52 -19 116zM628 816h182q-11 -13 -13 -17q-6 -12 -9 -35v-713q0 -23 6 -33l16 -18h-178q19 40 19 71l-7 656q1 31 -16 89z" />
<glyph unicode="&#xfb;" horiz-adv-x="1610" d="M-3 310q0 271 251 316q17 3 38 3q51 0 107 -23q20 -8 45 -23l-12 -149q-33 62 -103 62q-30 0 -67 -13q-128 -45 -128 -182q0 -76 48 -123.5t124 -47.5q152 0 233 229q29 81 35 81q4 0 49.5 -69t60.5 -69q10 0 53.5 70t56.5 70t37 -51l49 -106q2 0 43 77.5t46 77.5 q6 0 69 -121q29 -56 59 -51l70 92q49 57 88 64q30 5 80.5 -33.5t70.5 -38.5q33 0 55 33q15 29 21 39l49 -160q-48 -80 -114 -80q-24 0 -54 18q-68 41 -93 41q-8 0 -15 -1q-31 -5 -84 -62.5t-99 -57.5q-36 0 -71 65q-26 49 -26 57q-27 -37 -41 -55q-47 -59 -67 -67 q-19 -7 -58 60q-12 21 -37 64q-26 -36 -46 -62q-48 -62 -58 -58q-18 8 -46 47q-16 23 -33 52q-48 -88 -48 -89q-29 -49 -62 -79q-72 -65 -175 -65q-104 0 -186 59q-88 63 -106 162q-9 50 -9 97z" />
<glyph unicode="&#xfc;" d="M-353 -270h158q75 -13 75 -84v-199h-178v172q0 58 -55 111z" />
<glyph unicode="&#xfd;" d="M-690 -277l2 6h164q47 -11 47 -61q-4 -8 -4 -18v-23q0 -76 55 -87l46 -2q39 -2 66 13q31 17 35 57q5 24 9 48q0 27 -17 45t-17 16v4h194q-10 -15 -14 -22q-8 -14 -8 -33v-93q-13 -85 -96 -132q-72 -41 -164 -41q-85 0 -150 36q-80 44 -80 122v83q0 28 -68 82z" />
<glyph unicode="&#xfe;" d="M-409 -407q0 49 35.5 86t84.5 37t82.5 -37t33.5 -86q0 -50 -33.5 -86t-82.5 -36t-84.5 36.5t-35.5 85.5z" />
<glyph unicode="&#xff;" horiz-adv-x="455" />
<glyph unicode="&#x152;" horiz-adv-x="802" d="M8 611v151q129 58 248 58q19 0 56 -3t56 -3q87 0 115 87h175v-19q0 -104 -79 -130q111 -102 111 -303q0 -135 -55 -253q-59 -129 -166 -196q-56 -18 -157 -18q-46 0 -58 1q-48 4 -74 17q-10 99 -21 163q-37 211 -122 294h156q46 -51 76 -166q26 -99 26 -179 q100 12 177.5 106t77.5 195q0 54 -28.5 117.5t-70.5 93.5q-58 52 -177 52q-156 0 -266 -65z" />
<glyph unicode="&#x153;" d="M-634 1255q0 73 45 126q92 109 315 109q60 0 88 -4l2 -141q-83 -1 -104 -2q-71 -4 -100 -17q-36 -8 -36 -45q0 -13 5 -28q1 -5 5 -15h-210q-10 0 -10 17z" />
<glyph unicode="&#x160;" d="M-420 1135q54 -15 69 -15h72v56q0 10 -8 26l-9 19h180q0 -10 -8 -27t-8 -22v-45h61q9 0 30.5 4t32.5 4v-152q-23 15 -54 20h-76v-48q0 -34 18 -52h-182q2 4 8 10q12 12 15 21l-6 57h-81q-10 0 -27.5 -6t-20.5 -6z" />
<glyph unicode="&#x161;" d="M-806 1259q0 101 26 149q35 65 127 65h15q9 -7 88 -76q9 5 42 23q43 24 61 24q45 0 79 -51q25 -12 31 -12q16 0 73 41v-130q-16 -52 -104 -52q-47 0 -62 19q-16 59 -64 59h-6l-50 -49l-78 59h-4q-26 0 -26 -43v-24l-2 -2h-146z" />
<glyph unicode="&#x178;" horiz-adv-x="1341" d="M8 618q52 154 262 198q85 8 133 8q132 0 222 -45q117 -59 117 -178v-229l-3 -4q0 -39 56 -62q44 -17 90 -17q63 0 118 31q73 41 88 118v322q0 33 -31 42h199q-9 -9 -16.5 -17.5t-11.5 -38.5v-610q0 -144 -353 -144q-82 0 -279 16v122q121 -31 244 -31q207 0 207 92v11 q0 11 -2 19q-42 -64 -187 -64q-91 0 -171 33q-103 43 -103 122l2 15v233q0 70 -67 109q-55 32 -130 32q-54 0 -124 -20q-83 -24 -105 -59q28 0 57 -30q25 -26 34 -56q-89 -24 -89 -98v-328q2 -19 35.5 -47.5t33.5 -48.5q-1 -10 -3 -14h-154q-44 0 -44 91v358q0 78 62 111 q0 58 -87 58z" />
<glyph unicode="&#x192;" d="M-912 959v142q75 16 152 16q68 0 152 -11l168 -24q84 -12 128 -12q74 0 117 25l-2 -136q-73 -29 -160 -29q-53 0 -252 29q-96 14 -160 14q-75 0 -143 -14z" />
<glyph unicode="&#x2c6;" d="M-447 957q0 18 18 40q39 48 39 77q0 42 -52 118h161q56 0 56 -81q0 -6 -2 -17.5t-2 -17.5l18 -2q104 0 178 69v-140q-24 -42 -117 -65q-71 -18 -139 -18q-115 0 -158 37z" />
<glyph unicode="&#x2dc;" d="M-564 1237v268h164v-268h-164z" />
<glyph unicode="&#xe00;" horiz-adv-x="211" />
<glyph unicode="&#xe01;" horiz-adv-x="802" d="M8 630q44 95 151 149q96 48 209 48h31q99 0 155 -33q70 -28 99 -58q43 -44 43 -100v-593q0 -13 15 -43h-171q18 13 18 43v577q-5 44 -72 68q-50 17 -106 17q-129 0 -179 -69q20 -6 38.5 -33.5t18.5 -48.5l-2 -20q-79 -17 -79 -77v-406q0 -20 14 -45v-6h-162q0 5 6 22 t6 29v404q0 77 64 109q-34 51 -97 66z" />
<glyph unicode="&#xe02;" horiz-adv-x="705" d="M16 171v274q0 61 55 97t55 55q-7 54 -77 54q-15 0 -33 -3v144q23 14 94 14q99 0 140 -54q33 -44 33 -104q0 -76 -47 -122q-13 -21 -52 -51q-25 -19 -25 -53v-201q13 -96 103 -111q8 0 31 -5q156 0 156 100v553q0 12 -12 28t-23 16h193q-18 -36 -18 -56v-527 q0 -225 -277 -225h-50q-218 0 -246 177z" />
<glyph unicode="&#xe03;" horiz-adv-x="705" d="M16 173v282q0 62 45 94q50 36 59 93v20q0 112 -97 144q6 14 30 14q17 0 93 -29q37 -14 55 -14q33 0 47 37q35 -22 35 -111q0 -99 -39 -147l-68 -60q-15 -21 -15 -66v-215q8 -55 34 -76q17 -14 69 -27l32 -2q55 -3 100.5 24.5t45.5 80.5v547q0 24 -22 40h196 q-29 -22 -29 -50v-529q0 -235 -268 -235h-40q-263 0 -263 185z" />
<glyph unicode="&#xe04;" horiz-adv-x="872" d="M8 347q0 172 81 306q101 167 341 167q113 0 196 -43q102 -53 113 -155v-571q0 -16 9 -28.5t18 -22.5h-181q1 5 9 18q5 10 5 25v542q-35 97 -171 97q-97 0 -170 -54q-103 -95 -103 -271q0 -130 60 -206q12 76 54 164q47 98 88 111h177q6 0 6 -13q0 -29 -16 -35 q-84 -31 -138 -161q-39 -94 -55 -217l-234 2q-89 132 -89 345z" />
<glyph unicode="&#xe05;" horiz-adv-x="872" d="M8 345q0 156 52 275q42 97 118 152q66 48 141 48h22l99 -66l94 66q80 0 142 -54q63 -57 63 -136v-579q0 -16 9 -28.5t18 -22.5h-169q14 22 14 43v546q0 30 -28 51q-25 18 -57 18q-65 0 -96 -53q-7 27 -42 45q-30 16 -61 16q-26 0 -42 -13q-66 -40 -102 -133 q-30 -78 -30 -167q0 -162 62 -215q11 57 55 161q53 127 87 127h177q6 0 6 -13q0 -29 -16 -35q-70 -28 -129 -159q-49 -109 -64 -219h-254q-24 41 -45 136q-24 109 -24 209z" />
<glyph unicode="&#xe06;" horiz-adv-x="897" d="M29 814q5 13 26 13q7 0 63 -25q27 -12 49 -12q30 0 56 26v-518q31 -168 234 -168q56 0 98 24q50 29 56 80v526q-4 10 -7 15q-10 17 -25 27h190q0 2 -12.5 -11.5t-12.5 -38.5v-577q-10 -77 -63 -127t-129 -50q-26 -4 -87 -4q-162 0 -231 75q-4 -19 -9 -39q-7 -26 -20 -30 h-170q29 27 40 47q20 37 20 95v536q0 110 -66 136z" />
<glyph unicode="&#xe07;" horiz-adv-x="831" d="M12 593l130 83q21 -149 48 -296q14 -75 48 -244q32 -10 85 -10q79 0 145 41q71 45 90 118q21 80 21 164q0 77 -42.5 138t-114.5 85h-79v148h64q151 0 227 -107q83 -117 83 -300q0 -156 -55 -246q-86 -141 -249 -167q-38 -6 -103 -6q-183 0 -192 49z" />
<glyph unicode="&#xe08;" horiz-adv-x="748" d="M8 630v141q82 53 201 53q96 0 185 -35q84 -33 140 -97t81 -133q27 -75 27 -152q0 -155 -84 -289q-102 -126 -318 -126q-30 0 -89 8q0 24 1 73t1 73q0 143 -37 207q-41 41 -81 83l2 13h197q37 0 57 -112q13 -77 13 -142v-51q-2 -10 -2 -14q58 17 83 29q46 22 76 62 q47 89 47 195q0 79 -44 150.5t-115 105.5q-74 22 -140 22q-121 0 -201 -64z" />
<glyph unicode="&#xe09;" horiz-adv-x="775" d="M0 500q0 10 8 18h143q22 -12 22 -82q0 -25 -3 -73.5t-3 -71.5q-2 -146 83 -179q47 -13 69 -13q84 0 137 59q48 54 48 255q0 157 -19 184q-48 93 -208 93q-164 0 -236 -70v155q111 49 263 49q294 0 330 -202l-4 -486q0 -74 30 -109q12 -14 24 -27h-178q-6 0 -29 26 q-11 13 -20 13q-59 -51 -168 -51q-113 0 -177 51q-39 40 -55 72q-22 45 -22 112q0 39 6 83v39q0 52 -12 84q-10 23 -29 71z" />
<glyph unicode="&#xe0a;" horiz-adv-x="831" d="M33 794l2 8h153q54 -13 54 -75v-508q16 -93 150 -93q82 0 122 14q68 24 75 91q0 25 3 74.5t3 74.5q0 144 -73 203q-25 25 -44 34q-28 10 -56 21v77q87 25 113 85q15 35 15 126h157v-8q0 -144 -118 -215q138 -78 138 -315q0 -105 -24 -221q-41 -116 -121 -152 q-60 -27 -202 -27h-18q-102 0 -166 44q-74 51 -74 148l-2 492q0 44 -43.5 81t-43.5 41z" />
<glyph unicode="&#xe0b;" horiz-adv-x="831" d="M37 794q8 16 23 16q76 -39 99 -39q9 0 28 24q12 15 26 25q39 -5 39 -111q0 -53 -10 -133q-25 -201 -25 -247q0 -91 29 -130q46 -79 154 -79q56 0 113 29q67 34 78 85q14 64 14 125q0 234 -189 325v58q82 34 98 48q50 44 50 146h155q0 -136 -132 -227q150 -115 150 -341 q0 -67 -14 -169q-54 -144 -155 -185q-84 -34 -184 -34q-137 0 -207 63q-88 111 -88 240q0 50 10.5 148.5t10.5 147.5q0 145 -73 215z" />
<glyph unicode="&#xe0c;" horiz-adv-x="1353" d="M6 587q20 128 199 199q75 30 191 30q322 0 343 -207l3 -357q8 -63 79 -104q63 -36 132 -36q96 0 132 59v575q0 14 -12 34t-25 20h201q-7 -10 -13 -20q-5 -14 -5 -32l-4 -568q0 -107 -83 -160q-60 -38 -135 -38h-34q-145 0 -244 67l-24 -49h-181q1 4 35 25.5t34 67.5v471 q0 55 -75 90q-61 28 -140 28q-169 0 -213 -71q83 0 83 -77q-62 -4 -62 -118v-323q0 -45 31 -63q10 -6 31 -18q0 -9 -6 -12h-153q-48 0 -48 67q4 4 4 10v374q0 55 13 75q4 7 31 24q-11 37 -85 37z" />
<glyph unicode="&#xe0d;" horiz-adv-x="1308" d="M8 618q52 154 262 198q85 8 133 8q136 0 232 -40q132 -54 132 -171l-1 -245q0 -83 106 -83q68 0 117 43t63 110v322q0 33 -31 42h204q-11 -9 -20 -17.5t-9 -38.5v-610q0 -144 -318 -144q-82 0 -279 16v122q121 -31 244 -31q207 0 207 92v11q0 11 -2 19q-42 -64 -187 -64 q-237 0 -237 141l2 14v234q0 69 -86 116q-72 39 -148 39q-53 0 -115 -20q-75 -23 -97 -59q28 0 56 -28.5t36 -57.5q-31 -9 -55 -25q-46 -30 -46 -73v-328q2 -19 35.5 -47.5t33.5 -48.5q-2 -10 -4 -14h-159q-44 0 -44 91v358q0 78 62 111q0 58 -87 58z" />
<glyph unicode="&#xe0e;" horiz-adv-x="843" d="M8 8q0 9 31.5 40t31.5 70v353q0 79 32 89q0 22 -22.5 36.5t-45.5 14.5q36 106 144 166q98 54 217 54q40 0 110 -11q79 -13 146 -69q75 -62 75 -138v-731q0 -134 -203 -134h-94q0 19 -16 42.5t-34 23.5q-16 0 -35 -23q-43 -51 -140 -51h-42q-9 2 -12 2v122q6 0 17.5 -2 t17.5 -2q49 0 94 26q98 57 114 57l32 -5q36 -11 58 -55q9 -19 22 -19q73 0 73 91v613q0 63 -67 97q-54 27 -124 27q-49 0 -101 -17q-64 -22 -80 -57q27 0 53.5 -25.5t26.5 -52.5q-5 -6 -27 -12q-35 -10 -35 -65v-372q0 -72 -52 -91h-161z" />
<glyph unicode="&#xe0f;" horiz-adv-x="831" d="M0 2q60 47 60 91v347q0 82 56 104q-7 20 -36 30l-45 15q6 51 42 102q33 48 61 61q31 31 108 52q72 20 150 20q118 0 207 -40q114 -52 128 -154l-10 -756q0 -132 -79 -132h-193q-18 43 -36 43q-11 0 -37 -29q-12 -14 -17 -14h-101q-26 39 -39 39q-64 -45 -114 -45h-14v109 q43 0 67 18q20 21 41 42h59q11 0 32.5 -30t34.5 -30q9 0 31 28t32 28h54q7 0 43 -56h19q35 0 58 25.5t23 60.5l2 9v645q0 57 -73 88q-55 23 -122 23q-152 0 -193 -78q75 -38 75 -64l-14 -10q-13 -9 -34 -30q-13 -17 -13 -45v-407q0 -20 -12.5 -41t-31.5 -21h-167z" />
<glyph unicode="&#xe10;" horiz-adv-x="788" d="M8 620v142q123 56 248 54l112 -2q81 -1 115 87h175v-19q0 -104 -79 -130q111 -102 111 -303q0 -135 -55 -253q-59 -129 -166 -196q-56 -18 -157 -18q-46 0 -58 1q-48 4 -74 17q-10 99 -21 163q-37 211 -122 294h166q46 -52 76 -166q25 -95 25 -179q97 11 168 114 q66 97 66 198q0 145 -87 208q-56 50 -177 50q-147 0 -266 -62zM47 -130q36 7 48 11q49 17 56 50h58q8 0 19.5 -20t19.5 -23h6q10 0 21 13l21 28h63q21 -41 50 -41q33 18 33 57h157v-32q0 -123 -83 -142h-100q-56 0 -75 38q-19 -32 -43 -32h-75q-8 1 -34 26q-13 13 -18 13 q-8 0 -12 -4q-27 -27 -78 -27q-6 0 -17 2t-17 2v81z" />
<glyph unicode="&#xe11;" horiz-adv-x="885" d="M51 816q9 4 34 4q23 0 45 -20.5t35 -22.5q14 0 35 21.5t31 21.5q8 -4 17 -4v-188q33 77 142 133q101 53 191 53q11 0 55 -6q112 -30 112 -132v-619q0 -20 7.5 -33t15.5 -24h-186q0 -1 14 18t14 42v574q-20 44 -82 44q-80 0 -178.5 -100t-108.5 -182v-325q4 -30 24 -71 h-197q11 8 17 15q17 19 17 40v654q0 57 -54 107z" />
<glyph unicode="&#xe12;" horiz-adv-x="1407" d="M2 392q0 171 70 283q80 130 240 152l114 -75l100 58q10 10 47 10q76 0 139 -47q82 -61 82 -170v-359q0 -61 58 -100q51 -34 115 -34q57 0 108 31q60 37 60 95v491q0 39 -28 75h201q-14 -16 -18 -24q-7 -14 -7 -32v-531q0 -112 -89 -168q-74 -47 -192 -47q-52 0 -113 13 q-83 17 -95 47l-36 -60l-167 -8q27 30 35 43q23 38 23 81v477q0 29 -51 62q-47 31 -78 31q-28 0 -53 -26q-11 -12 -41 -55q-18 25 -46 47q-44 34 -82 34l-2 -26q-70 -22 -110 -89q-37 -61 -37 -139q0 -61 18 -139q20 -92 52 -126q74 35 119 114q34 60 34 101q0 21 -39 75 q0 8 10 18h155q20 -43 20 -93q0 -95 -71 -217q-54 -93 -124 -165h-201q-57 47 -92 183q-28 111 -28 209z" />
<glyph unicode="&#xe13;" horiz-adv-x="1324" d="M6 613q34 102 157 159q104 48 225 48q122 0 209 -47q103 -55 126 -164v-394q0 -41 51 -66q41 -19 87 -19q63 0 111 30q54 34 66 92v508q0 60 -38 60h198q-4 -10 -9 -16q-9 -12 -9 -42v-681q6 -26 28 -52q11 -13 32 -29h-170l-35 51q-47 -53 -184 -53q-25 0 -57 3 q-76 7 -83 7q-54 15 -91 58.5t-37 98.5v424q-34 99 -217 99q-123 0 -182 -77q66 -28 66 -71v-6q-66 -23 -66 -69v-386q0 -36 50 -79h-139q-45 0 -54 85v394q0 62 44 81q-2 19 -79 53z" />
<glyph unicode="&#xe14;" horiz-adv-x="885" d="M2 333q0 199 89 339q102 161 356 161q113 0 209 -55q114 -66 113 -171l-7 -552q0 -25 16 -40.5t16 -14.5h-207q29 23 29 62v511q-18 121 -190 121q-85 0 -151 -37q-75 -42 -100 -117q-29 -64 -29 -158q0 -148 53 -246q69 21 111 108q30 62 41 140q6 24 6 19q0 17 -32 40 t-32 32l3 13h204q10 -28 10 -64q0 -94 -64 -227q-61 -126 -134 -197h-192q-61 38 -93 151q-25 88 -25 182z" />
<glyph unicode="&#xe15;" horiz-adv-x="885" d="M6 357q0 185 65 307q83 156 252 156l119 -124l110 124q89 0 145 -46q61 -49 61 -136v-16l8 -553q0 -15 11 -32l23 -37l-197 -8q2 7 13.5 19t11.5 36l-4 552q-10 63 -84 63q-31 0 -64 -24t-46 -53q-9 33 -53 62t-79 29q-12 0 -19 -4q-23 -14 -25 -14q-114 -108 -114 -270 q0 -71 27 -162q18 -59 36 -98q44 4 102 108q48 85 63 146v12q0 36 -33 59.5t-33 25.5q1 7 6 15h198q14 -27 14 -70q0 -99 -81 -242q-77 -136 -146 -182h-222q-65 170 -65 357z" />
<glyph unicode="&#xe16;" horiz-adv-x="831" d="M6 593q27 117 151 180q104 54 237 54q109 0 197 -38q112 -48 126 -141v-597q0 -17 12.5 -32.5t12.5 -16.5l-204 -10q0 9 8 17q18 18 18 58v520q0 61 -72 90q-53 22 -124 22q-56 0 -109 -16q-71 -21 -86 -61q76 -19 83 -86q-63 -7 -63 -98v-335q0 -3 -2.5 -9.5t-2.5 -8.5 q0 -50 68 -97l-167 12q-24 2 -31 6q-15 9 -15 41q0 7 3 20t3 20v362q0 53 11 68q7 9 43 25q-11 51 -89 51h-8z" />
<glyph unicode="&#xe17;" horiz-adv-x="885" d="M43 800h162q31 -12 31 -126v-44q68 76 172 129q110 57 205 57q22 0 51 -6q94 -19 94 -135v-604q0 -30 17 -47t17 -24l-211 -8q14 13 32 75v577q-16 28 -59 28q-80 0 -196 -105q-122 -110 -122 -203v-297q0 -28 10.5 -41.5t23.5 -25.5h-203q9 9 15 16q13 15 13 61l-2 605 q0 67 -18 88z" />
<glyph unicode="&#xe18;" horiz-adv-x="762" d="M8 587l4 51q0 109 124 164q70 31 189 31q237 0 311 -87v-153q-28 47 -146 81q-99 29 -171 29q-87 0 -144 -52q-14 -16 -14 -48q0 -44 54 -55q41 -15 170 -25q123 -9 183 -35q88 -38 90 -126l4 -189q2 -101 -118 -155q-93 -41 -207 -41q-104 0 -186 34q-110 45 -110 135 v201h137v-132l10 -12q0 -48 61 -74q47 -21 102 -21q56 0 104 18q65 24 65 71v132q0 45 -132 54q-193 13 -247 31q-144 47 -133 173z" />
<glyph unicode="&#xe19;" horiz-adv-x="857" d="M23 812q0 5 10 17h168q35 0 35 -58l-2 -499q0 -59 56 -102q52 -40 113 -40q82 0 132 61q46 58 46 142v434q0 27 -11 41q-10 10 -20 21h204q-2 -3 -12 -15q-17 -21 -17 -47v-668q7 -52 67 -99h-191l-28 62q-97 -64 -226 -64q-117 0 -186.5 68.5t-69.5 185.5v461 q0 29 -23 56q-23 21 -45 43z" />
<glyph unicode="&#xe1a;" horiz-adv-x="872" d="M27 827h150q46 0 46 -75l-2 -516q0 -58 83 -86q58 -20 130 -20q186 0 186 128v530q0 11 -31 39h213q-17 -13 -36 -48v-580q-11 -108 -111 -162q-81 -43 -200 -43h-67q-113 0 -192 38q-101 47 -117 146v549q0 43 -26 68.5t-26 31.5z" />
<glyph unicode="&#xe1b;" horiz-adv-x="843" d="M47 829h158q49 0 49 -102v-481q0 -58 48 -96q45 -34 105 -34q59 0 119 35q69 40 69 95v802q0 27 -12 43q-15 21 -17 29h192q-2 -8 -12 -28q-9 -15 -9 -38v-855q-14 -108 -121 -170q-91 -52 -209 -52q-116 0 -196 52q-93 60 -93 170v512q0 43 -25 73q-32 30 -46 45z" />
<glyph unicode="&#xe1c;" horiz-adv-x="912" d="M8 95v649q0 49 13 66q8 10 34 17h170q-70 -59 -70 -90v-609l233 548q6 23 34 23q24 0 43 -15l193 -538v620q0 25 -14 39q-17 18 -18 22h209q-11 -12 -20 -19q-19 -15 -19 -48l-2 -669q0 -88 -61 -91l-165 -8l-85 245q-61 179 -70 220q-36 -81 -117 -301q-31 -84 -60 -156 h-131q-27 0 -40 4q-57 17 -57 91z" />
<glyph unicode="&#xe1d;" horiz-adv-x="845" d="M2 124v624q0 41 13 59q5 7 45 22h159q-79 -51 -79 -98v-578l217 550q7 12 25 12q11 0 31 -12l180 -548v899q0 19 -14 33t-15 18h196v-6q-23 -23 -23 -51v-969q0 -76 -69 -79l-162 -8q-12 39 -45 136l-55 161q-28 84 -38 127q-10 -25 -43 -124q-10 -30 -52 -158 q-24 -75 -46 -134h-146q-79 0 -79 124z" />
<glyph unicode="&#xe1e;" horiz-adv-x="996" d="M14 822l2 7h172q52 0 52 -116v-552l207 523q11 29 36 29q35 0 49 -37l189 -515v548q0 35 -12 64q-16 28 -31 56h215q-21 -63 -28 -116v-583q0 -130 -126 -130l-91 -8q-15 46 -50 140l-61 163q-36 97 -45 129l-76 -198q-54 -138 -97 -226h-148q-41 0 -64 50q-18 40 -18 86 v540q0 43 -23 80z" />
<glyph unicode="&#xe1f;" horiz-adv-x="926" d="M37 829h170q37 0 37 -71v-597l176 501q9 26 22 26q22 0 33 -28l195 -487v834q0 44 -26 110l197 -8q-18 -29 -31 -86v-924q0 -48 -35 -75q-27 -21 -76 -24l-116 -8q-7 24 -98 253q-33 83 -45 127l-113 -372h-132q-38 0 -68 31t-30 70l4 23v587q0 47 -25 78q-20 20 -39 40z " />
<glyph unicode="&#xe20;" horiz-adv-x="831" d="M12 0q22 21 31 33q14 18 14 62v360q0 54 11 74q8 14 42 35q-11 33 -94 33q34 111 144 172q97 55 222 55h10q112 0 213 -46q128 -57 128 -156v-567q3 -24 15 -39t12 -16l-204 -8q13 13 26 27q9 14 9 34v532q-17 55 -94 84q-60 23 -129 23q-138 0 -180 -68q80 0 80 -86v-6 q-69 0 -69 -47v-420q0 -45 -15.5 -59.5t-37.5 -13.5z" />
<glyph unicode="&#xe21;" horiz-adv-x="914" d="M35 0q36 38 42 47q28 41 35 102v547q0 46 -20 82q-11 20 -41 51h154q53 -6 53 -98v-6l4 -398q10 -89 83 -143q69 -50 161 -50q128 0 160 61v557q0 31 -9 45q-2 3 -31 32h201q-31 -31 -31 -54l4 -591q1 -104 -81 -156q-69 -44 -179 -44q-175 0 -266 73l-34 -57h-205z" />
<glyph unicode="&#xe22;" horiz-adv-x="775" d="M6 609q0 42 17 83q53 128 225 128q53 0 85 -4v-163q-30 13 -95 13q-36 0 -55 -12q-14 -9 -18 -30l-2 -11q0 -73 139 -73l-4 -146q-135 -18 -135 -115q0 -24 14 -68q34 -81 156 -81q67 0 123 31q68 37 68 99v511q0 26 -10 39q-13 17 -14 19h211q0 -2 -21.5 -20.5 t-21.5 -48.5v-541q0 -117 -120 -183q-98 -54 -225 -54q-221 0 -276 130q-33 78 -33 140q0 150 98 205q-106 43 -106 152z" />
<glyph unicode="&#xe23;" horiz-adv-x="705" d="M8 564q0 42 12 84q52 183 278 183q71 0 146 -17q56 -13 96 -30v-160q-60 64 -244 64q-38 0 -78 -17q-46 -20 -57 -51q-6 -36 -6 -31q0 -48 77 -73q19 -6 161 -33q99 -19 138 -49q93 -72 93 -188q0 -150 -114 -219q-71 -43 -206 -43q-68 0 -140 15q-97 19 -123 56v154 q44 -27 117 -51q86 -28 152 -28q57 0 104 21q61 26 61 76v15q0 57 -69 82l-160 38q-114 27 -177 78q-61 41 -61 124z" />
<glyph unicode="&#xe24;" horiz-adv-x="762" d="M12 618q22 104 126 161q89 48 205 48q104 0 190 -40q103 -48 131 -136v-885q0 -21 13 -32q7 -6 7 -11v-8h-203q31 45 31 70v783q0 62 -62 98q-52 30 -119 30q-118 0 -156 -74q18 0 41.5 -28t23.5 -46q0 -8 -4 -8q-20 -12 -40 -23q-19 -16 -19 -52v-374q0 -38 25 -58 q35 -20 52 -33h-183q-41 0 -38 55l2 36v390q0 70 48 87v7q0 18 -20.5 30.5t-39.5 12.5h-11z" />
<glyph unicode="&#xe25;" horiz-adv-x="773" d="M0 250q0 207 171 286q84 39 162 39q108 0 187 -44q4 6 4 37q0 68 -67 100q-61 28 -147 28q-178 0 -287 -105v146q40 44 156 70q91 20 174 20q282 0 315 -161v-619q0 -21 24 -45l-192 -2q0 2 13 12.5t13 34.5v317q-25 74 -169 74q-51 0 -100 -17q-64 -23 -69 -64 q-18 -35 -27 -55q-12 -27 -12 -44q0 -50 57 -88q52 -34 104 -34q17 0 52 8v-144q-17 0 -52 -3t-52 -3q-120 0 -191 66q-67 62 -67 190z" />
<glyph unicode="&#xe26;" horiz-adv-x="843" d="M12 0q22 21 31 33q14 18 14 62v360q0 54 11 74q8 14 42 35q-11 33 -94 33q34 111 144 172q97 55 222 55h10q119 0 210 -44q110 -54 131 -158l4 -802q0 -19 7 -28.5t14 -18.5l-192 -4q10 9 21 18q14 17 14 42v754q-35 113 -221 113q-152 0 -192 -66q37 0 66 -25t29 -61v-4 q-84 -10 -84 -46v-417q0 -77 -59 -77h-128z" />
<glyph unicode="&#xe27;" horiz-adv-x="705" d="M2 658v136q76 37 184 37q118 0 218 -46q106 -49 156 -141q31 -57 43 -108q13 -59 13 -120q0 -79 -20 -150q-22 -77 -58 -126q-114 -154 -350 -154q-49 0 -131 14v149q45 -10 60 -13q34 -6 58 -6q123 0 213 74q95 78 95 199q0 62 -12 99q-29 89 -117 139q-80 45 -179 45 q-63 0 -173 -28z" />
<glyph unicode="&#xe28;" horiz-adv-x="829" d="M2 372q0 84 24 167q25 91 69 153q93 132 291 132q62 0 104 -10q34 17 44 31q7 10 10 37h175v-17q0 -92 -83 -132q83 -23 83 -160v-511q0 -27 17.5 -45t17.5 -17h-198q0 -2 14.5 12.5t14.5 36.5v530q0 55 -65 87q-52 26 -113 26q-67 0 -131 -29q-75 -34 -94 -90 q-33 -98 -33 -177q0 -96 33 -223q26 98 59 181q50 126 92 146h167q-115 -63 -182 -322q-15 -57 -39 -178h-198q-79 221 -79 372z" />
<glyph unicode="&#xe29;" horiz-adv-x="885" d="M33 829h190q35 0 35 -104v-483q0 -62 41.5 -100.5t103.5 -38.5q65 0 119 30q65 36 65 92v226l-21 -2q-47 0 -93 12q-65 18 -66 53l-2 126q35 -37 135 -37h39v168q0 20 -14 35q-19 22 -21 25h220l-18 -23q-13 -17 -15 -41l-10 -158h87v-152h-81v-286q-23 -92 -126 -143 q-85 -42 -192 -42q-246 0 -297 187v519q0 62 -30 95q-25 21 -49 42z" />
<glyph unicode="&#xe2a;" horiz-adv-x="762" d="M6 244q0 117 61 182q89 124 266 124q115 0 177 -26q4 12 4 42q0 67 -45 87q-18 19 -65.5 29t-93.5 10q-78 0 -151 -28q-85 -33 -118 -91v156q64 95 298 95h81q58 0 72 65h157q0 -59 -10 -81q-16 -33 -66 -42q72 -21 83 -138v-571q0 -21 7 -34q4 -8 19 -23h-186 q8 10 15 20q11 17 11 42v326q-58 25 -165 25q-72 0 -126 -29q-65 -34 -76 -99q-6 -20 -6 -41q0 -112 188 -112l2 -132h-56q-235 0 -267 161q-10 51 -10 83z" />
<glyph unicode="&#xe2b;" horiz-adv-x="870" d="M23 816q3 11 4 13h153q33 0 44 -7q26 -17 26 -74v-226q26 57 104 117q63 48 121 74l-83 -2v118h387v-124h-83q62 -24 62 -81v-555q0 -29 7 -45l16 -24h-192l18 30q6 17 6 39v520q-13 10 -43 10q-93 0 -204 -150q-101 -137 -116 -240v-154q0 -20 15 -39q4 -5 16 -16h-210 q34 26 34 49v654l-4 2q0 48 -24 74q-27 18 -54 37z" />
<glyph unicode="&#xe2c;" horiz-adv-x="1009" d="M41 831h164q53 0 53 -71v-605l207 597q8 23 31 23q21 0 35 -23l217 -568v549q0 40 -26 64l-58 36v126q3 0 4 -1t2 -1q109 0 109 134h147v-29q0 -125 -89 -169q60 -27 60 -109v-613q0 -50 -27 -105q-31 -66 -76 -66h-126q-18 98 -111 326l-57 141q-16 -47 -50 -137 l-64 -172q-34 -99 -49 -158h-138q-42 6 -61 38q-24 38 -20 88l2 25v545q0 58 -33 89q-45 42 -46 46z" />
<glyph unicode="&#xe2d;" horiz-adv-x="845" d="M12 302q0 124 59 198h254v-12q0 -15 -75 -57t-83 -92q0 -193 188 -193h63q24 0 37 3q148 34 148 247q0 117 -41 187q-30 50 -104 79q-63 24 -131 24q-182 0 -265 -83v151q104 66 275 66q239 0 355 -167q62 -89 62 -240q0 -299 -214 -391q-79 -34 -168 -34q-175 0 -268 94 q-92 91 -92 220z" />
<glyph unicode="&#xe2e;" horiz-adv-x="845" d="M12 323q0 152 59 213h206q-105 -93 -109 -132q-5 -43 -5 -65q0 -82 44 -141q49 -64 128 -64q48 0 110 21q164 56 164 271q0 70 -35 139.5t-93 102.5t-138 33q-81 0 -174 -35q-67 -25 -112 -55v151q124 71 274 71q63 0 120 -6q30 9 30 66q0 21 -4 31h193q0 -103 -69 -147 q161 -121 161 -351q0 -90 -25 -166q-43 -132 -168 -206q-104 -62 -232 -62q-155 0 -232 77q-93 74 -93 254z" />
<glyph unicode="&#xe2f;" horiz-adv-x="649" d="M8 731q0 72 33 98h156q-40 -26 -40 -87q0 -16 12 -72q19 -91 118 -91q36 0 65.5 22t29.5 57v84q0 38 -8 58q-2 6 -17 29h195q-8 -12 -14 -24.5t-6 -29.5v-724q0 -29 13 -42q7 -7 7 -9h-184l14 18q6 11 6 42v421q-20 -28 -120 -28q-75 0 -136 35q-73 42 -105 130 q-19 52 -19 113z" />
<glyph unicode="&#xe30;" horiz-adv-x="455" d="M2 69v142q82 -23 169 -23q129 0 191 56v-167q-54 -44 -169 -44q-112 0 -191 36zM2 597v145q106 -25 176 -25q130 0 184 58v-166q-55 -45 -174 -45q-113 0 -186 33z" />
<glyph unicode="&#xe31;" d="M-496 1170h207q0 -35 22 -69.5t54 -42.5q77 -20 136 -20q78 0 159 24q96 28 139 75v-137q-92 -88 -318 -88q-267 0 -343 105q-56 77 -56 153z" />
<glyph unicode="&#xe32;" horiz-adv-x="609" d="M6 585v163q8 41 108 65q74 18 136 18q102 0 169 -41q79 -49 79 -146l-2 -577q0 -16 8 -37.5t8 -29.5h-181q6 11 13 23q7 17 7 48v516q0 105 -128 105q-174 0 -217 -107z" />
<glyph unicode="&#xe33;" horiz-adv-x="609" d="M-312 1048q0 47 33 82.5t80 35.5q49 0 85.5 -34.5t36.5 -83.5q0 -50 -36 -86t-86 -36q-47 0 -80 37t-33 85zM6 585v163q8 41 108 65q74 18 136 18q102 0 169 -41q79 -49 79 -146l-2 -577q0 -16 8 -37.5t8 -29.5h-181q6 11 13 23q7 17 7 48v516q0 105 -128 105 q-174 0 -217 -107z" />
<glyph unicode="&#xe34;" d="M-847 944v141q75 16 153 16q79 0 178 -14q234 -33 266 -33q70 0 120 24l-2 -136q-74 -28 -161 -28q-60 0 -149 14q-197 31 -263 31q-58 0 -142 -15z" />
<glyph unicode="&#xe35;" d="M-849 953v172q16 0 47.5 3t47.5 3q81 0 170 -19q30 -6 136 -35q70 -19 101 -19q23 0 45 12v96h192l5 -224q-101 -28 -193 -28q-68 0 -163 14q-210 31 -276 31q-26 0 -40 -1z" />
<glyph unicode="&#xe36;" d="M-843 948v169l70 3q53 2 157 -19l213 -43q21 0 25 8v6q0 51 39 84.5t91 33.5q96 0 116 -81l4 -47q4 -44 -26 -87t-134 -55q-28 -4 -55 -4q-67 0 -154 11q-207 26 -259 26q-56 0 -87 -5zM-289 1072q0 -49 45 -49q39 0 39 49q0 53 -39 53q-45 0 -45 -53z" />
<glyph unicode="&#xe37;" d="M-863 961v170l63 2q58 2 168 -22q101 -22 132 -22q23 0 49 8v105l143 2v-107h64v105h130v-235q-47 -47 -177 -47q-71 0 -168 11l-195 23q-99 11 -152 11q-10 0 -28.5 -2t-28.5 -2z" />
<glyph unicode="&#xe38;" d="M-345 -95h159q74 -17 74 -85v-200h-179v173q0 58 -54 112z" />
<glyph unicode="&#xe39;" d="M-682 -93l2 6h164q45 -12 45 -62q-4 -8 -4 -18v-21q0 -78 55 -89l48 -2q38 -2 64 13q31 17 36 57q8 32 8 48q0 27 -17 45t-17 17v4h197q-25 -34 -25 -56v-93q-13 -85 -95 -132q-70 -40 -163 -40q-85 0 -150 36q-79 43 -79 122v83q0 27 -69 82z" />
<glyph unicode="&#xe3a;" d="M-343 -231q0 50 35 86.5t85 36.5q48 0 81.5 -37t33.5 -86q0 -48 -33.5 -85t-81.5 -37q-50 0 -85 36t-35 86z" />
<glyph unicode="&#xe3f;" horiz-adv-x="800" d="M2 2q55 43 55 122v684q0 92 -55 122h281v227h109v-231q100 -14 163 -64q75 -59 75 -153q0 -59 -37 -110t-93 -67q98 -32 147 -76q74 -66 74 -179q0 -145 -119 -218q-90 -55 -210 -55v-175h-109v173h-281zM211 112q-12 0 72 -7v352l-72 -2v-343zM211 554q8 0 24.5 -2 t24.5 -2h23v279q-34 2 -53 2h-19v-277zM392 103q162 15 162 155v19q0 138 -162 172v-346zM392 575q73 29 73 97v24q-11 88 -73 114v-235z" />
<glyph unicode="&#xe40;" horiz-adv-x="298" d="M14 829h195q-14 -10 -17 -13q-10 -13 -10 -37v-669q12 -80 82 -110h-169q-54 0 -54 73v698q0 33 -9 41.5t-18 16.5z" />
<glyph unicode="&#xe41;" horiz-adv-x="609" d="M43 829h201q-5 -6 -14 -19q-21 -30 -21 -58l-2 -649q0 -42 37 -70l58 -33h-176q-59 11 -59 81v679q0 30 -9 46q-8 11 -15 23zM323 829h203q-12 -11 -19 -18q-15 -15 -15 -40v-668q5 -39 37 -67q16 -14 56 -36h-176q-62 12 -62 81v671q0 33 -9 51q-8 13 -15 26z" />
<glyph unicode="&#xe42;" horiz-adv-x="258" d="M-85 1283v161q100 71 199 71q64 0 148 -32q183 -70 213 -70q16 0 31 4l25 7v-143q-33 -12 -52 -12q-44 0 -111 25l-136 49q-68 25 -106 25q-28 0 -45 -10q61 -61 61 -172v-1060q0 -53 39 -97q14 -15 34 -37l-148 8q-79 4 -79 101l2 17v1062q-6 31 -75 103z" />
<glyph unicode="&#xe43;" horiz-adv-x="492" d="M-97 1235q0 112 68 194q72 86 182 86h46q183 0 217 -191v-20q0 -61 -18 -111q-11 -29 -26 -68v-1005q20 -102 77 -128h-175q-47 29 -47 77l2 22l-2 1038q27 44 27 113q0 57 -25 99q-34 36 -87 36q-41 0 -69 -42q-26 -38 -26 -81v-12l4 -27h-146z" />
<glyph unicode="&#xe44;" horiz-adv-x="556" d="M-67 1279v149q33 -10 69 -10q59 0 183 40t179 40q86 0 130 -70q26 -54 26 -102q0 -104 -82 -148v-1068q4 -41 22 -66l48 -44h-155q-34 17 -42 30q-16 24 -16 63v1097q28 73 28 104q0 20 -11 30q-22 11 -52 11q-18 0 -95.5 -33t-137.5 -33q-37 0 -94 10z" />
<glyph unicode="&#xe45;" horiz-adv-x="609" d="M8 581v165q8 36 105 58q71 16 129 16q237 0 254 -172v-666q0 -34 7.5 -48.5t16.5 -28.5h-195l20 26q6 15 6 46v577q0 57 -46 92q-42 32 -100 32q-56 0 -116 -23q-74 -28 -81 -74z" />
<glyph unicode="&#xe46;" horiz-adv-x="568" d="M-2 649v11l4 156q35 8 60 8q89 0 115 -60q60 60 127 60q11 0 34 -2t34 -2q79 -15 79 -91v-690q0 -13 9.5 -23t14.5 -16h-182q14 11 16 14q5 8 5 29v645q-8 11 -56 11q-11 0 -53 -37q-21 -18 -38 -18l-6 4q-34 59 -70 59q-15 0 -61 -39q-22 -19 -32 -19z" />
<glyph unicode="&#xe47;" d="M-587 903v190q0 60 58.5 113t119.5 53h50q38 0 122 -13q39 -6 59 -6q42 0 87 31l-4 -140q-5 -20 -66 -20q-34 0 -102.5 9t-102.5 9h-14q-54 0 -54 -57q0 -16 8 -59l10 -2q12 0 41.5 31.5t47.5 31.5h17q20 0 81 -47q15 -6 34 -6q58 0 100 51v-134q-38 -40 -112 -37l-43 2 q-20 1 -73 62q-19 0 -45 -33q-18 -22 -26 -29h-193z" />
<glyph unicode="&#xe48;" d="M-277 1246v269h165v-269h-165z" />
<glyph unicode="&#xe49;" d="M-461 1283v4q0 12 39 66q19 26 19 50q0 41 -52 118h162q22 0 37 -21q18 -24 16 -64l-2 -33l11 -4q98 0 188 70v-137q-26 -44 -118 -68q-71 -18 -141 -18q-112 0 -159 37z" />
<glyph unicode="&#xe4a;" d="M-536 1257q0 102 24 149q34 65 126 65h18q31 -22 60 -53q20 -21 25 -21q10 5 43 22q45 23 62 23q45 0 81 -51q16 -12 28 -12q20 0 75 43v-133q-19 -51 -105 -51q-46 0 -62 19q-21 61 -62 61h-6l-54 -51l-76 61q-29 0 -29 -45v-24l-4 -2h-144z" />
<glyph unicode="&#xe4b;" d="M-432 1473q74 -17 68 -17h71v55q0 18 -15 45h180q0 -11 -12 -31q-6 -10 -6 -16v-46h61q8 0 21 3q31 7 41 7v-153q-22 16 -54 19h-74v-50q0 -26 17 -49h-180q11 14 21 29l-5 59h-80q-13 0 -48 -14z" />
<glyph unicode="&#xe4c;" d="M-370 1259q0 70 47 126q92 109 315 109q58 0 85 -4l4 -141q-75 -1 -126 -4q-56 -3 -77 -15q-39 -8 -39 -45q0 -13 5 -28q1 -5 5 -15h-208q-11 0 -11 17z" />
<glyph unicode="&#xe4d;" d="M-312 1048q0 47 33 82.5t80 35.5q49 0 85.5 -34.5t36.5 -83.5q0 -50 -36 -86t-86 -36q-47 0 -80 37t-33 85z" />
<glyph unicode="&#xe4e;" d="M-513 1031q0 -58 66 -98q58 -34 120 -34q50 0 115 37q21 12 55 37l-52 67q5 -5 5 -9q0 -17 -58 -30q-30 -7 -51 -7q-45 0 -45 27q0 5 5 17q14 24 29 29q36 6 108 17q34 4 36 5l-8 44q-26 6 -34 8q-36 11 -42 23q-6 54 72 54q9 0 18 -1l19 -2q10 0 110 -15l-14 100 q-17 3 -41 5q-51 5 -73 5q-101 0 -175 -21q-90 -26 -99 -76q-4 -24 37 -48q13 -7 44 -20q-22 -3 -54 -12q-93 -26 -93 -102z" />
<glyph unicode="&#xe4f;" horiz-adv-x="764" d="M16 417q0 123 83 213q88 95 225 95q123 0 212 -84q95 -90 95 -225q0 -123 -84 -212q-90 -95 -223 -95q-123 0 -212 84q-96 91 -96 224zM94 418q0 -95 67 -162t160 -67q94 0 160.5 67.5t66.5 161.5t-67 161t-160 67q-92 0 -159.5 -66.5t-67.5 -161.5zM172 422q0 59 39 102 q44 48 112 48q60 0 105 -40q47 -44 47 -111q0 -57 -41 -102q-46 -50 -111 -50q-59 0 -102 39q-49 44 -49 114z" />
<glyph unicode="&#xe50;" horiz-adv-x="788" d="M12 400q0 173 86 290q96 130 264 130q161 0 254 -111q87 -105 87 -269v-40q0 -166 -82 -283q-93 -131 -253 -131h-27q-165 0 -253 129q-76 112 -76 285zM178 392q0 -108 40 -185q50 -97 148 -97q100 0 148 97q38 75 38 185q0 112 -37 187q-48 97 -149 97q-99 0 -149 -98 q-39 -77 -39 -186z" />
<glyph unicode="&#xe51;" horiz-adv-x="392" d="M2 696q115 31 242 139l-2 -742q0 -41 25 -65q18 -14 37 -28h-277l49 31q19 20 19 70v535q-17 19 -34 30q-7 5 -59 30z" />
<glyph unicode="&#xe52;" horiz-adv-x="692" d="M2 524q0 122 60 213q29 45 107 70q64 20 129 20q215 0 252 -165v-51q0 -167 -132 -354q-39 -55 -110 -137q20 0 61 3t61 3q135 0 204 52l-100 -178h-520q15 20 117 125q95 98 150 175q82 115 115 232q7 11 7 36q0 35 -33.5 75t-67.5 43l-15 -4q-47 0 -86 -31 q-53 -42 -48 -101l2 -26h-153z" />
<glyph unicode="&#xe53;" horiz-adv-x="638" d="M6 23l2 140q99 -58 197 -58q40 0 111 15q82 40 82 116q0 38 -14 60q-18 38 -81 55q-53 14 -110 13l-83 -2q-5 0 -7 2v136q5 0 14 -2t13 -2q190 0 223 93q0 101 -109 114h-29q-117 0 -172 -55v136q86 47 205 47q70 0 130 -19q97 -31 125 -116q13 -39 13 -76 q0 -56 -24 -104q-29 -56 -78 -67q65 0 105 -70q33 -59 33 -129q0 -108 -75 -183q-85 -85 -246 -85q-116 0 -225 41z" />
<glyph unicode="&#xe54;" horiz-adv-x="816" d="M12 175l356 627h207v-500h103q49 0 74 17l-27 -144h-152v-113q9 -40 36 -62h-215q40 29 40 140v35h-422zM234 306h206v334z" />
<glyph unicode="&#xe55;" horiz-adv-x="664" d="M-2 180q124 -50 221 -50q67 0 124 30q70 37 70 98l-4 35q-33 127 -223 127q-53 0 -127 -34l-57 -27l73 443h431v-130h-315l-16 -128q33 6 81 6q168 0 254 -118q42 -58 42 -160q0 -94 -28 -152q-61 -128 -276 -128q-119 0 -236 39z" />
<glyph unicode="&#xe56;" horiz-adv-x="723" d="M2 362q0 181 87 287q70 85 165 124q102 41 215 39l97 -2v-134q-15 0 -44.5 3t-44.5 3q-145 0 -235 -90q-70 -70 -91 -170q0 -8 -3.5 -24.5t-3.5 -23.5q0 -100 50 -170q55 -78 152 -78q29 0 50 10q38 18 73 60q39 46 39 83q0 12 -1 16q-4 8 -7 17q-41 124 -205 124 q-34 0 -51 -4l115 128q124 0 202 -68q81 -71 81 -194v-43q-2 -8 -4 -19q-20 -102 -78 -171q-62 -74 -153 -77l-56 -2q-111 -4 -212 76q-88 69 -112.5 158t-24.5 142z" />
<glyph unicode="&#xe57;" horiz-adv-x="692" d="M12 624l73 176h516l-239 -666q-17 -47 -17 -63q0 -29 21 -51l20 -20h-215l227 638q-16 40 -162 40q-147 0 -224 -54z" />
<glyph unicode="&#xe58;" horiz-adv-x="668" d="M0 229q0 160 122 226q-87 38 -87 154q0 38 14 87q19 67 83 107q60 38 132 38q8 0 24 2t24 2q204 0 246 -192q0 -6 3 -23.5t3 -26.5q0 -118 -83 -156q100 -59 100 -195v-20q0 -20 -2 -33q-31 -199 -286 -199h-31q-221 0 -256 171q-6 29 -6 58zM136 258l2 -14 q18 -46 37 -91q26 -33 121 -33q64 0 101 41q25 29 25 66v17q1 8 1 22q0 106 -149 106h-32q-19 0 -35 -4q-71 -41 -71 -110zM184 624q0 -49 41 -78q36 -26 87 -26q46 0 91 30q19 17 19 61q0 57 -22 73q-39 49 -109 49q-72 0 -90 -49q-17 -28 -17 -60z" />
<glyph unicode="&#xe59;" horiz-adv-x="748" d="M6 504q0 107 67 198.5t169 113.5q71 15 109 15q141 0 226 -93.5t85 -235.5v-45q-32 -305 -321 -441q-82 -22 -182 -22q-25 0 -53 2l-39 4l14 79q17 5 110 20q64 10 119 37q96 46 143 117q65 98 65 263v8q0 79 -54 123q-50 41 -131 41q-57 0 -97 -20t-69 -62 q-31 -45 -31 -88q0 -26 13 -55q67 -101 194 -101q17 0 87 14l-58 -116q-34 -14 -76 -14q-125 0 -239 105q-51 65 -51 153z" />
<glyph unicode="&#xe5a;" horiz-adv-x="905" d="M8 719q0 69 33 97h147q-37 -25 -37 -89q0 -22 10 -69q9 -41 46 -66.5t80 -25.5q37 0 66 22t29 58v81q0 40 -8 60q-3 7 -17 29h195q-8 -11 -14 -22.5t-6 -29.5v-713q0 -29 13 -42q7 -7 7 -9h-184l14 18q6 11 6 42v407q-24 -27 -120 -27q-74 0 -136 35q-74 42 -105 128 q-19 52 -19 116zM628 816h182q-11 -13 -13 -17q-6 -12 -9 -35v-713q0 -23 6 -33l16 -18h-178q19 40 19 71l-7 656q1 31 -16 89z" />
<glyph unicode="&#xe5b;" horiz-adv-x="1610" d="M-3 310q0 271 251 316q17 3 38 3q51 0 107 -23q20 -8 45 -23l-12 -149q-33 62 -103 62q-30 0 -67 -13q-128 -45 -128 -182q0 -76 48 -123.5t124 -47.5q152 0 233 229q29 81 35 81q4 0 49.5 -69t60.5 -69q10 0 53.5 70t56.5 70t37 -51l49 -106q2 0 43 77.5t46 77.5 q6 0 69 -121q29 -56 59 -51l70 92q49 57 88 64q30 5 80.5 -33.5t70.5 -38.5q33 0 55 33q15 29 21 39l49 -160q-48 -80 -114 -80q-24 0 -54 18q-68 41 -93 41q-8 0 -15 -1q-31 -5 -84 -62.5t-99 -57.5q-36 0 -71 65q-26 49 -26 57q-27 -37 -41 -55q-47 -59 -67 -67 q-19 -7 -58 60q-12 21 -37 64q-26 -36 -46 -62q-48 -62 -58 -58q-18 8 -46 47q-16 23 -33 52q-48 -88 -48 -89q-29 -49 -62 -79q-72 -65 -175 -65q-104 0 -186 59q-88 63 -106 162q-9 50 -9 97z" />
<glyph unicode="&#x2000;" horiz-adv-x="850" />
<glyph unicode="&#x2001;" horiz-adv-x="1700" />
<glyph unicode="&#x2002;" horiz-adv-x="850" />
<glyph unicode="&#x2003;" horiz-adv-x="1700" />
<glyph unicode="&#x2004;" horiz-adv-x="566" />
<glyph unicode="&#x2005;" horiz-adv-x="425" />
<glyph unicode="&#x2006;" horiz-adv-x="283" />
<glyph unicode="&#x2007;" horiz-adv-x="283" />
<glyph unicode="&#x2008;" horiz-adv-x="212" />
<glyph unicode="&#x2009;" horiz-adv-x="340" />
<glyph unicode="&#x200a;" horiz-adv-x="94" />
<glyph unicode="&#x2010;" horiz-adv-x="973" d="M85 426v94h757v-94h-757z" />
<glyph unicode="&#x2011;" horiz-adv-x="973" d="M85 426v94h757v-94h-757z" />
<glyph unicode="&#x2012;" horiz-adv-x="973" d="M85 426v94h757v-94h-757z" />
<glyph unicode="&#x2013;" d="M-599 1033q0 48 34 83t82 35q51 0 86 -33.5t35 -84.5q0 -49 -36 -84t-85 -35q-48 0 -82 35.5t-34 83.5z" />
<glyph unicode="&#x2014;" d="M-849 903v190q0 61 59 113.5t120 52.5h48q39 0 123 -13q39 -6 59 -6q42 0 87 31l-4 -140q-3 -20 -65 -20q-35 0 -103.5 9t-102.5 9h-14q-54 0 -54 -57q0 -16 8 -59l10 -2q12 0 41.5 31.5t47.5 31.5h16q24 0 49 -23t32 -24q17 -6 35 -6q58 0 100 51v-134q-38 -40 -112 -37 l-43 2q-17 1 -73 62q-18 0 -37 -23q-29 -35 -34 -39h-193z" />
<glyph unicode="&#x2018;" horiz-adv-x="285" d="M12 754l2 32q7 41 37 91.5t63 70.5q12 7 20 7q19 0 33 -17q-72 -91 -72 -107q0 -11 17 -11q72 -6 72 -81q0 -77 -83 -77q-45 0 -68 27t-21 65z" />
<glyph unicode="&#x2019;" horiz-adv-x="285" d="M16 907q0 76 83 76q89 0 89 -90l-4 -32q-5 -40 -33 -87q-13 -21 -41 -57q-11 -10 -18 -14q-16 -11 -25 -11q-15 0 -34 15q24 32 44 60q26 36 26 49q0 11 -16 11q-71 7 -71 80z" />
<glyph unicode="&#x201a;" d="M-568 899v269h163v-269h-163z" />
<glyph unicode="&#x201c;" horiz-adv-x="518" d="M12 754l2 32q7 41 37 91.5t63 70.5q12 7 20 7q19 0 33 -17q-72 -91 -72 -107q0 -11 17 -11q72 -6 72 -81q0 -77 -83 -77q-45 0 -68 27t-21 65zM258 742l2 31q3 39 33 88q49 79 87 79q19 0 33 -14q-15 -19 -42.5 -56.5t-27.5 -53.5q0 -10 14 -10q31 0 52 -23.5t21 -55.5 q0 -78 -83 -78q-45 0 -67 25q-25 28 -22 68z" />
<glyph unicode="&#x201d;" horiz-adv-x="518" d="M16 907q0 76 83 76q89 0 89 -90l-4 -32q-5 -40 -33 -87q-13 -21 -41 -57q-11 -10 -18 -14q-16 -11 -25 -11q-15 0 -34 15q24 32 44 60q26 36 26 49q0 11 -16 11q-71 7 -71 80zM262 895q0 76 83 76q89 0 89 -91l-4 -33q-9 -76 -75 -142q-25 -25 -43 -25q-15 0 -33 14 q1 2 32 43q38 50 38 67q0 10 -16 10q-30 0 -50.5 25t-20.5 56z" />
<glyph unicode="&#x201e;" d="M-818 910q0 102 24 150q34 67 126 67h20q87 -75 86 -75l43 22.5t60 22.5q42 -5 81 -49q15 -13 29 -13q15 0 35 13q4 2 37 28v-134q-16 -49 -101 -49q-52 0 -64 17q-17 63 -68 63l-52 -53l-80 61q-26 0 -26 -45v-26h-150z" />
<glyph unicode="&#x2020;" d="M-564 944q0 77 40 132q86 118 290 118q21 0 47 -2l38 -4v-146q0 -25 -37 -25q-17 0 -46 4q-73 10 -84 10q-6 0 -18.5 -2t-18.5 -2q-35 -8 -35 -58q0 -17 5 -44q2 -11 5 -20h-182q-1 14 -4 39z" />
<glyph unicode="&#x2021;" d="M-312 903v269h163v-269h-163z" />
<glyph unicode="&#x2022;" d="M-767 1178h207q0 -29 16 -60q26 -50 124 -65q34 -5 69 -5q79 0 160 23q96 27 140 74v-138q-91 -87 -321 -87q-263 0 -341 105q-54 73 -54 153z" />
<glyph unicode="&#x2026;" d="M-668 1151l65 -12h72v55q0 20 -19 43h182q0 -9 -5 -19q-13 -24 -13 -28v-45h61q7 0 21 3q32 7 46 7v-152q-19 10 -54 18h-80v-48q0 -27 20 -51h-182q12 15 23 31l-3 56h-82q-13 0 -50 -11z" />
<glyph unicode="&#x202f;" horiz-adv-x="340" />
<glyph unicode="&#x2030;" d="M-613 946q0 101 24 148q34 65 126 65h16q43 -36 88 -72l42 22q42 22 61 22q43 0 81 -50q15 -13 29 -13q17 0 75 43v-132q-17 -49 -106 -49q-45 0 -63 16q-15 61 -62 61h-6l-51 -50l-77 60h-4q-25 0 -25 -44v-25l-4 -2h-144z" />
<glyph unicode="&#x2039;" d="M-382 922q0 75 45 126q96 109 314 109q15 0 44 -1t44 -1l2 -142q-85 -2 -103 -3q-71 -5 -100 -17q-37 -6 -37 -45q0 -13 5 -28q1 -5 5 -15h-209q-10 0 -10 17z" />
<glyph unicode="&#x203a;" d="M-692 1467q34 -8 68 -15h74v55q0 19 -18 45h180q0 -12 -11 -31q-6 -11 -6 -16v-47h62q8 0 30 5.5t32 5.5v-153q-20 14 -54 19h-76v-50q0 -33 19 -48h-183q10 8 25 28l-6 59h-82q-9 0 -48 -14z" />
<glyph unicode="&#x205f;" horiz-adv-x="425" />
<glyph unicode="&#x2122;" d="M-800 1279q0 12 39 66q19 26 19 52q0 44 -54 118h162q24 0 39 -19q19 -22 16 -64l-2 -33l17 -2q107 0 180 70v-141q-27 -44 -118 -68q-69 -18 -140 -18q-113 0 -158 39z" />
<glyph unicode="&#x2212;" horiz-adv-x="1308" d="M8 618q52 154 262 198q85 8 133 8q136 0 232 -40q132 -54 132 -171l-1 -245q0 -83 106 -83q68 0 117 43t63 110v322q0 33 -31 42h204q-11 -9 -20 -17.5t-9 -38.5v-610q0 -144 -318 -144q-82 0 -279 16v122q121 -31 244 -31q207 0 207 92v11q0 11 -2 19q-42 -64 -187 -64 q-237 0 -237 141l2 14v234q0 69 -86 116q-72 39 -148 39q-53 0 -115 -20q-75 -23 -97 -59q28 0 56 -28.5t36 -57.5q-31 -9 -55 -25q-46 -30 -46 -73v-328q2 -19 35.5 -47.5t33.5 -48.5q-2 -10 -4 -14h-159q-44 0 -44 91v358q0 78 62 111q0 58 -87 58z" />
<glyph unicode="&#x25fc;" horiz-adv-x="670" d="M0 0v670h670v-670h-670z" />
<glyph unicode="&#xf700;" horiz-adv-x="802" d="M8 611v151q129 58 248 58q19 0 56 -3t56 -3q87 0 115 87h175v-19q0 -104 -79 -130q111 -102 111 -303q0 -135 -55 -253q-59 -129 -166 -196q-56 -18 -157 -18q-46 0 -58 1q-48 4 -74 17q-10 99 -21 163q-37 211 -122 294h156q46 -51 76 -166q26 -99 26 -179 q100 12 177.5 106t77.5 195q0 54 -28.5 117.5t-70.5 93.5q-58 52 -177 52q-156 0 -266 -65z" />
<glyph unicode="&#xf701;" d="M-1074 938v143q75 16 152 16q79 0 179 -14q235 -33 268 -33q68 0 118 24l-2 -136q-74 -28 -161 -28q-54 0 -251 30q-98 15 -161 15q-59 0 -142 -17z" />
<glyph unicode="&#xf702;" d="M-1109 948v172q83 7 96 7q78 0 216 -36.5t188 -36.5q21 0 47 12v95h192l2 -223q-92 -28 -190 -28q-68 0 -163 14q-210 31 -277 31q-19 0 -56 -3.5t-55 -3.5z" />
<glyph unicode="&#xf703;" d="M-1078 944v167q30 6 69 6q64 0 157 -20l214 -45q17 0 25 10v6q0 51 39 84.5t91 33.5q94 0 115 -81l4 -47q4 -44 -25.5 -87t-134.5 -55q-28 -4 -55 -4q-63 0 -153 11q-206 25 -259 25q-56 0 -87 -4zM-524 1068q0 -49 43 -49q41 0 41 49q0 52 -41 52q-43 0 -43 -52z" />
<glyph unicode="&#xf704;" d="M-1107 944v169q11 0 31.5 2t31.5 2q52 0 152 -22.5t150 -22.5q31 0 48 9v105h142v-105h67v105h128v-238q-45 -47 -177 -47q-71 0 -168 11l-195 23q-111 12 -151 11z" />
<glyph unicode="&#xf705;" d="M-568 899v269h163v-269h-163z" />
<glyph unicode="&#xf706;" d="M-912 959v142q75 16 152 16q68 0 152 -11l168 -24q84 -12 128 -12q74 0 117 25l-2 -136q-73 -29 -160 -29q-53 0 -252 29q-96 14 -160 14q-75 0 -143 -14z" />
<glyph unicode="&#xf707;" d="M-818 910q0 102 24 150q34 67 126 67h20q87 -75 86 -75l43 22.5t60 22.5q42 -5 81 -49q15 -13 29 -13q15 0 35 13q4 2 37 28v-134q-16 -49 -101 -49q-52 0 -64 17q-17 63 -68 63l-52 -53l-80 61q-26 0 -26 -45v-26h-150z" />
<glyph unicode="&#xf708;" d="M-668 1151l65 -12h72v55q0 20 -19 43h182q0 -9 -5 -19q-13 -24 -13 -28v-45h61q7 0 21 3q32 7 46 7v-152q-19 10 -54 18h-80v-48q0 -27 20 -51h-182q12 15 23 31l-3 56h-82q-13 0 -50 -11z" />
<glyph unicode="&#xf709;" d="M-564 944q0 77 40 132q86 118 290 118q21 0 47 -2l38 -4v-146q0 -25 -37 -25q-17 0 -46 4q-73 10 -84 10q-6 0 -18.5 -2t-18.5 -2q-35 -8 -35 -58q0 -17 5 -44q2 -11 5 -20h-182q-1 14 -4 39z" />
<glyph unicode="&#xf70a;" d="M-312 903v269h163v-269h-163z" />
<glyph unicode="&#xf70b;" d="M-447 957q0 18 18 40q39 48 39 77q0 42 -52 118h161q56 0 56 -81q0 -6 -2 -17.5t-2 -17.5l18 -2q104 0 178 69v-140q-24 -42 -117 -65q-71 -18 -139 -18q-115 0 -158 37z" />
<glyph unicode="&#xf70c;" d="M-613 946q0 101 24 148q34 65 126 65h16q43 -36 88 -72l42 22q42 22 61 22q43 0 81 -50q15 -13 29 -13q17 0 75 43v-132q-17 -49 -106 -49q-45 0 -63 16q-15 61 -62 61h-6l-51 -50l-77 60h-4q-25 0 -25 -44v-25l-4 -2h-144z" />
<glyph unicode="&#xf70d;" d="M-420 1135q54 -15 69 -15h72v56q0 10 -8 26l-9 19h180q0 -10 -8 -27t-8 -22v-45h61q9 0 30.5 4t32.5 4v-152q-23 15 -54 20h-76v-48q0 -34 18 -52h-182q2 4 8 10q12 12 15 21l-6 57h-81q-10 0 -27.5 -6t-20.5 -6z" />
<glyph unicode="&#xf70e;" d="M-382 922q0 75 45 126q96 109 314 109q15 0 44 -1t44 -1l2 -142q-85 -2 -103 -3q-71 -5 -100 -17q-37 -6 -37 -45q0 -13 5 -28q1 -5 5 -15h-209q-10 0 -10 17z" />
<glyph unicode="&#xf70f;" horiz-adv-x="1341" d="M8 618q52 154 262 198q85 8 133 8q132 0 222 -45q117 -59 117 -178v-229l-3 -4q0 -39 56 -62q44 -17 90 -17q63 0 118 31q73 41 88 118v322q0 33 -31 42h199q-9 -9 -16.5 -17.5t-11.5 -38.5v-610q0 -144 -353 -144q-82 0 -279 16v122q121 -31 244 -31q207 0 207 92v11 q0 11 -2 19q-42 -64 -187 -64q-91 0 -171 33q-103 43 -103 122l2 15v233q0 70 -67 109q-55 32 -130 32q-54 0 -124 -20q-83 -24 -105 -59q28 0 57 -30q25 -26 34 -56q-89 -24 -89 -98v-328q2 -19 35.5 -47.5t33.5 -48.5q-1 -10 -3 -14h-154q-44 0 -44 91v358q0 78 62 111 q0 58 -87 58z" />
<glyph unicode="&#xf710;" d="M-767 1178h207q0 -29 16 -60q26 -50 124 -65q34 -5 69 -5q79 0 160 23q96 27 140 74v-138q-91 -87 -321 -87q-263 0 -341 105q-54 73 -54 153z" />
<glyph unicode="&#xf711;" d="M-599 1033q0 48 34 83t82 35q51 0 86 -33.5t35 -84.5q0 -49 -36 -84t-85 -35q-48 0 -82 35.5t-34 83.5z" />
<glyph unicode="&#xf712;" d="M-849 903v190q0 61 59 113.5t120 52.5h48q39 0 123 -13q39 -6 59 -6q42 0 87 31l-4 -140q-3 -20 -65 -20q-35 0 -103.5 9t-102.5 9h-14q-54 0 -54 -57q0 -16 8 -59l10 -2q12 0 41.5 31.5t47.5 31.5h16q24 0 49 -23t32 -24q17 -6 35 -6q58 0 100 51v-134q-38 -40 -112 -37 l-43 2q-17 1 -73 62q-18 0 -37 -23q-29 -35 -34 -39h-193z" />
<glyph unicode="&#xf713;" d="M-564 1237v268h164v-268h-164z" />
<glyph unicode="&#xf714;" d="M-800 1279q0 12 39 66q19 26 19 52q0 44 -54 118h162q24 0 39 -19q19 -22 16 -64l-2 -33l17 -2q107 0 180 70v-141q-27 -44 -118 -68q-69 -18 -140 -18q-113 0 -158 39z" />
<glyph unicode="&#xf715;" d="M-806 1259q0 101 26 149q35 65 127 65h15q9 -7 88 -76q9 5 42 23q43 24 61 24q45 0 79 -51q25 -12 31 -12q16 0 73 41v-130q-16 -52 -104 -52q-47 0 -62 19q-16 59 -64 59h-6l-50 -49l-78 59h-4q-26 0 -26 -43v-24l-2 -2h-146z" />
<glyph unicode="&#xf716;" d="M-692 1467q34 -8 68 -15h74v55q0 19 -18 45h180q0 -12 -11 -31q-6 -11 -6 -16v-47h62q8 0 30 5.5t32 5.5v-153q-20 14 -54 19h-76v-50q0 -33 19 -48h-183q10 8 25 28l-6 59h-82q-9 0 -48 -14z" />
<glyph unicode="&#xf717;" d="M-634 1255q0 73 45 126q92 109 315 109q60 0 88 -4l2 -141q-83 -1 -104 -2q-71 -4 -100 -17q-36 -8 -36 -45q0 -13 5 -28q1 -5 5 -15h-210q-10 0 -10 17z" />
<glyph unicode="&#xf718;" d="M-353 -270h158q75 -13 75 -84v-199h-178v172q0 58 -55 111z" />
<glyph unicode="&#xf719;" d="M-690 -277l2 6h164q47 -11 47 -61q-4 -8 -4 -18v-23q0 -76 55 -87l46 -2q39 -2 66 13q31 17 35 57q5 24 9 48q0 27 -17 45t-17 16v4h194q-10 -15 -14 -22q-8 -14 -8 -33v-93q-13 -85 -96 -132q-72 -41 -164 -41q-85 0 -150 36q-80 44 -80 122v83q0 28 -68 82z" />
<glyph unicode="&#xf71a;" d="M-409 -407q0 49 35.5 86t84.5 37t82.5 -37t33.5 -86q0 -50 -33.5 -86t-82.5 -36t-84.5 36.5t-35.5 85.5z" />
<glyph unicode="&#xf71b;" d="M-615 0v1024h615v-1024h-615z" />
<glyph unicode="&#xf71c;" horiz-adv-x="455" />
<glyph unicode="&#xf71d;" horiz-adv-x="455" d="M24 -4h406v-180h-98v67h-215v-67h-93v180z" />
</font>
</defs>
</svg>
